<mxfile host="app.diagrams.net" agent="Mozilla/5.0 (Windows NT 10.0; Win64; x64) AppleWebKit/537.36 (KHTML, like Gecko) Chrome/133.0.0.0 Safari/537.36 Edg/133.0.0.0" version="26.0.16">
  <diagram name="PÃ¡gina-1" id="zbexcOJi0THVj82fLxo9">
    <mxGraphModel dx="6037" dy="5033" grid="1" gridSize="10" guides="1" tooltips="1" connect="1" arrows="1" fold="1" page="1" pageScale="1" pageWidth="827" pageHeight="1169" math="0" shadow="0">
      <root>
        <mxCell id="0" />
        <mxCell id="1" parent="0" />
        <UserObject label="" mermaidData="{&#xa;  &quot;data&quot;: &quot;erDiagram\n     USERS {\n        int id PK\n        string name\n        string email\n        string password\n    }\n\n    CATEGORIES {\n        int id PK \n        varchar name \&quot;50, UNIQUE\&quot;\n    }\n\n    PRODUCTS {\n        int id PK \n        int code \&quot;UNIQUE\&quot;\n        varchar name \&quot;100\&quot;\n        text description \n        decimal price \&quot;10, 2\&quot;\n        int stock\n        int category_id FK \n        int supplier_id FK \&quot;NULL\&quot;\n    }\n    \n    IMAGES {\n        int id PK \n        int product_id FK \n        varchar name \n    }\n\n    SUPPLIERS {\n        int id PK \n        varchar name \&quot;100, UNIQUE\&quot;\n        json contact_info \n    }\n\n    SALES {\n        int id PK\n        int customer_id FK \&quot;NULLABLE\&quot;\n        decimal total_amount\n    }\n    \n    SALE_PRODUCTS {\n        int id PK\n        int sale_id FK\n        int product_id FK\n        int quantity\n    }\n\n    %% Relaciones entre las tablas\n    CATEGORIES ||--o{ PRODUCTS: \&quot;\&quot;\n    PRODUCTS ||--o{ IMAGES: \&quot;\&quot;\n    PRODUCTS }o--|| SUPPLIERS: \&quot;\&quot;\n    USERS ||--o{ SALES : \&quot;\&quot;\n    USERS ||--o{ SALES : \&quot;\&quot;\n    SALES ||--o{ SALE_PRODUCTS : \&quot;\&quot;\n    PRODUCTS ||--o{ SALE_PRODUCTS : \&quot;\&quot;\n\n\n\n    \n&quot;&#xa;}" id="OeQ5iquZTndMhMfY6wKx-675">
          <mxCell style="shape=image;noLabel=1;verticalAlign=top;imageAspect=1;image=data:image/svg+xml,PHN2ZyBhcmlhLXJvbGVkZXNjcmlwdGlvbj0iZXIiIHJvbGU9ImdyYXBoaWNzLWRvY3VtZW50IGRvY3VtZW50IiB2aWV3Qm94PSIwIDAgODEwLjc1OTM5OTQxNDA2MjUgNjYyLjc5OTk4Nzc5Mjk2ODgiIHN0eWxlPSJtYXgtd2lkdGg6IDgxMC43NTkzOTk0MTQwNjI1cHg7IiB4bWxucz0iaHR0cDovL3d3dy53My5vcmcvMjAwMC9zdmciIHdpZHRoPSIxMDAlIiBpZD0iZ2VNZXJtYWlkT3V0cHV0LTE3NDA0MzU3MzU5NDEiPjxzdHlsZT4jZ2VNZXJtYWlkT3V0cHV0LTE3NDA0MzU3MzU5NDF7Zm9udC1mYW1pbHk6InRyZWJ1Y2hldCBtcyIsdmVyZGFuYSxhcmlhbCxzYW5zLXNlcmlmO2ZvbnQtc2l6ZToxNnB4O2ZpbGw6I2NjYzt9I2dlTWVybWFpZE91dHB1dC0xNzQwNDM1NzM1OTQxIC5lcnJvci1pY29ue2ZpbGw6I2E0NDE0MTt9I2dlTWVybWFpZE91dHB1dC0xNzQwNDM1NzM1OTQxIC5lcnJvci10ZXh0e2ZpbGw6I2RkZDtzdHJva2U6I2RkZDt9I2dlTWVybWFpZE91dHB1dC0xNzQwNDM1NzM1OTQxIC5lZGdlLXRoaWNrbmVzcy1ub3JtYWx7c3Ryb2tlLXdpZHRoOjFweDt9I2dlTWVybWFpZE91dHB1dC0xNzQwNDM1NzM1OTQxIC5lZGdlLXRoaWNrbmVzcy10aGlja3tzdHJva2Utd2lkdGg6My41cHg7fSNnZU1lcm1haWRPdXRwdXQtMTc0MDQzNTczNTk0MSAuZWRnZS1wYXR0ZXJuLXNvbGlke3N0cm9rZS1kYXNoYXJyYXk6MDt9I2dlTWVybWFpZE91dHB1dC0xNzQwNDM1NzM1OTQxIC5lZGdlLXRoaWNrbmVzcy1pbnZpc2libGV7c3Ryb2tlLXdpZHRoOjA7ZmlsbDpub25lO30jZ2VNZXJtYWlkT3V0cHV0LTE3NDA0MzU3MzU5NDEgLmVkZ2UtcGF0dGVybi1kYXNoZWR7c3Ryb2tlLWRhc2hhcnJheTozO30jZ2VNZXJtYWlkT3V0cHV0LTE3NDA0MzU3MzU5NDEgLmVkZ2UtcGF0dGVybi1kb3R0ZWR7c3Ryb2tlLWRhc2hhcnJheToyO30jZ2VNZXJtYWlkT3V0cHV0LTE3NDA0MzU3MzU5NDEgLm1hcmtlcntmaWxsOmxpZ2h0Z3JleTtzdHJva2U6bGlnaHRncmV5O30jZ2VNZXJtYWlkT3V0cHV0LTE3NDA0MzU3MzU5NDEgLm1hcmtlci5jcm9zc3tzdHJva2U6bGlnaHRncmV5O30jZ2VNZXJtYWlkT3V0cHV0LTE3NDA0MzU3MzU5NDEgc3Zne2ZvbnQtZmFtaWx5OiJ0cmVidWNoZXQgbXMiLHZlcmRhbmEsYXJpYWwsc2Fucy1zZXJpZjtmb250LXNpemU6MTZweDt9I2dlTWVybWFpZE91dHB1dC0xNzQwNDM1NzM1OTQxIHB7bWFyZ2luOjA7fSNnZU1lcm1haWRPdXRwdXQtMTc0MDQzNTczNTk0MSAuZW50aXR5Qm94e2ZpbGw6IzFmMjAyMDtzdHJva2U6I2NjYzt9I2dlTWVybWFpZE91dHB1dC0xNzQwNDM1NzM1OTQxIC5hdHRyaWJ1dGVCb3hPZGR7ZmlsbDpoc2woMCwgMCUsIDMyJSk7c3Ryb2tlOiNjY2M7fSNnZU1lcm1haWRPdXRwdXQtMTc0MDQzNTczNTk0MSAuYXR0cmlidXRlQm94RXZlbntmaWxsOmhzbCgwLCAwJSwgMjIlKTtzdHJva2U6I2NjYzt9I2dlTWVybWFpZE91dHB1dC0xNzQwNDM1NzM1OTQxIC5yZWxhdGlvbnNoaXBMYWJlbEJveHtmaWxsOmhzbCgyMCwgMS41ODczMDE1ODczJSwgMTIuMzUyOTQxMTc2NSUpO29wYWNpdHk6MC43O2JhY2tncm91bmQtY29sb3I6aHNsKDIwLCAxLjU4NzMwMTU4NzMlLCAxMi4zNTI5NDExNzY1JSk7fSNnZU1lcm1haWRPdXRwdXQtMTc0MDQzNTczNTk0MSAucmVsYXRpb25zaGlwTGFiZWxCb3ggcmVjdHtvcGFjaXR5OjAuNTt9I2dlTWVybWFpZE91dHB1dC0xNzQwNDM1NzM1OTQxIC5yZWxhdGlvbnNoaXBMaW5le3N0cm9rZTpsaWdodGdyZXk7fSNnZU1lcm1haWRPdXRwdXQtMTc0MDQzNTczNTk0MSAuZW50aXR5VGl0bGVUZXh0e3RleHQtYW5jaG9yOm1pZGRsZTtmb250LXNpemU6MThweDtmaWxsOiNjY2M7fSNnZU1lcm1haWRPdXRwdXQtMTc0MDQzNTczNTk0MSAjTURfUEFSRU5UX1NUQVJUe2ZpbGw6I2Y1ZjVmNSFpbXBvcnRhbnQ7c3Ryb2tlOmxpZ2h0Z3JleSFpbXBvcnRhbnQ7c3Ryb2tlLXdpZHRoOjE7fSNnZU1lcm1haWRPdXRwdXQtMTc0MDQzNTczNTk0MSAjTURfUEFSRU5UX0VORHtmaWxsOiNmNWY1ZjUhaW1wb3J0YW50O3N0cm9rZTpsaWdodGdyZXkhaW1wb3J0YW50O3N0cm9rZS13aWR0aDoxO30jZ2VNZXJtYWlkT3V0cHV0LTE3NDA0MzU3MzU5NDEgOnJvb3R7LS1tZXJtYWlkLWZvbnQtZmFtaWx5OiJ0cmVidWNoZXQgbXMiLHZlcmRhbmEsYXJpYWwsc2Fucy1zZXJpZjt9PC9zdHlsZT48Zz48L2c+PGRlZnM+PG1hcmtlciBvcmllbnQ9ImF1dG8iIG1hcmtlckhlaWdodD0iMjQwIiBtYXJrZXJXaWR0aD0iMTkwIiByZWZZPSI3IiByZWZYPSIwIiBpZD0iTURfUEFSRU5UX1NUQVJUIj48cGF0aCBkPSJNIDE4LDcgTDksMTMgTDEsNyBMOSwxIFoiPjwvcGF0aD48L21hcmtlcj48L2RlZnM+PGRlZnM+PG1hcmtlciBvcmllbnQ9ImF1dG8iIG1hcmtlckhlaWdodD0iMjgiIG1hcmtlcldpZHRoPSIyMCIgcmVmWT0iNyIgcmVmWD0iMTkiIGlkPSJNRF9QQVJFTlRfRU5EIj48cGF0aCBkPSJNIDE4LDcgTDksMTMgTDEsNyBMOSwxIFoiPjwvcGF0aD48L21hcmtlcj48L2RlZnM+PGRlZnM+PG1hcmtlciBvcmllbnQ9ImF1dG8iIG1hcmtlckhlaWdodD0iMTgiIG1hcmtlcldpZHRoPSIxOCIgcmVmWT0iOSIgcmVmWD0iMCIgaWQ9Ik9OTFlfT05FX1NUQVJUIj48cGF0aCBkPSJNOSwwIEw5LDE4IE0xNSwwIEwxNSwxOCIgZmlsbD0ibm9uZSIgc3Ryb2tlPSJncmF5Ij48L3BhdGg+PC9tYXJrZXI+PC9kZWZzPjxkZWZzPjxtYXJrZXIgb3JpZW50PSJhdXRvIiBtYXJrZXJIZWlnaHQ9IjE4IiBtYXJrZXJXaWR0aD0iMTgiIHJlZlk9IjkiIHJlZlg9IjE4IiBpZD0iT05MWV9PTkVfRU5EIj48cGF0aCBkPSJNMywwIEwzLDE4IE05LDAgTDksMTgiIGZpbGw9Im5vbmUiIHN0cm9rZT0iZ3JheSI+PC9wYXRoPjwvbWFya2VyPjwvZGVmcz48ZGVmcz48bWFya2VyIG9yaWVudD0iYXV0byIgbWFya2VySGVpZ2h0PSIxOCIgbWFya2VyV2lkdGg9IjMwIiByZWZZPSI5IiByZWZYPSIwIiBpZD0iWkVST19PUl9PTkVfU1RBUlQiPjxjaXJjbGUgcj0iNiIgY3k9IjkiIGN4PSIyMSIgZmlsbD0id2hpdGUiIHN0cm9rZT0iZ3JheSI+PC9jaXJjbGU+PHBhdGggZD0iTTksMCBMOSwxOCIgZmlsbD0ibm9uZSIgc3Ryb2tlPSJncmF5Ij48L3BhdGg+PC9tYXJrZXI+PC9kZWZzPjxkZWZzPjxtYXJrZXIgb3JpZW50PSJhdXRvIiBtYXJrZXJIZWlnaHQ9IjE4IiBtYXJrZXJXaWR0aD0iMzAiIHJlZlk9IjkiIHJlZlg9IjMwIiBpZD0iWkVST19PUl9PTkVfRU5EIj48Y2lyY2xlIHI9IjYiIGN5PSI5IiBjeD0iOSIgZmlsbD0id2hpdGUiIHN0cm9rZT0iZ3JheSI+PC9jaXJjbGU+PHBhdGggZD0iTTIxLDAgTDIxLDE4IiBmaWxsPSJub25lIiBzdHJva2U9ImdyYXkiPjwvcGF0aD48L21hcmtlcj48L2RlZnM+PGRlZnM+PG1hcmtlciBvcmllbnQ9ImF1dG8iIG1hcmtlckhlaWdodD0iMzYiIG1hcmtlcldpZHRoPSI0NSIgcmVmWT0iMTgiIHJlZlg9IjE4IiBpZD0iT05FX09SX01PUkVfU1RBUlQiPjxwYXRoIGQ9Ik0wLDE4IFEgMTgsMCAzNiwxOCBRIDE4LDM2IDAsMTggTTQyLDkgTDQyLDI3IiBmaWxsPSJub25lIiBzdHJva2U9ImdyYXkiPjwvcGF0aD48L21hcmtlcj48L2RlZnM+PGRlZnM+PG1hcmtlciBvcmllbnQ9ImF1dG8iIG1hcmtlckhlaWdodD0iMzYiIG1hcmtlcldpZHRoPSI0NSIgcmVmWT0iMTgiIHJlZlg9IjI3IiBpZD0iT05FX09SX01PUkVfRU5EIj48cGF0aCBkPSJNMyw5IEwzLDI3IE05LDE4IFEyNywwIDQ1LDE4IFEyNywzNiA5LDE4IiBmaWxsPSJub25lIiBzdHJva2U9ImdyYXkiPjwvcGF0aD48L21hcmtlcj48L2RlZnM+PGRlZnM+PG1hcmtlciBvcmllbnQ9ImF1dG8iIG1hcmtlckhlaWdodD0iMzYiIG1hcmtlcldpZHRoPSI1NyIgcmVmWT0iMTgiIHJlZlg9IjE4IiBpZD0iWkVST19PUl9NT1JFX1NUQVJUIj48Y2lyY2xlIHI9IjYiIGN5PSIxOCIgY3g9IjQ4IiBmaWxsPSJ3aGl0ZSIgc3Ryb2tlPSJncmF5Ij48L2NpcmNsZT48cGF0aCBkPSJNMCwxOCBRMTgsMCAzNiwxOCBRMTgsMzYgMCwxOCIgZmlsbD0ibm9uZSIgc3Ryb2tlPSJncmF5Ij48L3BhdGg+PC9tYXJrZXI+PC9kZWZzPjxkZWZzPjxtYXJrZXIgb3JpZW50PSJhdXRvIiBtYXJrZXJIZWlnaHQ9IjM2IiBtYXJrZXJXaWR0aD0iNTciIHJlZlk9IjE4IiByZWZYPSIzOSIgaWQ9IlpFUk9fT1JfTU9SRV9FTkQiPjxjaXJjbGUgcj0iNiIgY3k9IjE4IiBjeD0iOSIgZmlsbD0id2hpdGUiIHN0cm9rZT0iZ3JheSI+PC9jaXJjbGU+PHBhdGggZD0iTTIxLDE4IFEzOSwwIDU3LDE4IFEzOSwzNiAyMSwxOCIgZmlsbD0ibm9uZSIgc3Ryb2tlPSJncmF5Ij48L3BhdGg+PC9tYXJrZXI+PC9kZWZzPjxwYXRoIHN0eWxlPSJzdHJva2U6IGdyYXk7IGZpbGw6IG5vbmU7IiBtYXJrZXItc3RhcnQ9InVybCgjT05MWV9PTkVfU1RBUlQpIiBtYXJrZXItZW5kPSJ1cmwoI1pFUk9fT1JfTU9SRV9FTkQpIiBkPSJNNDIzLjM0LDEwOS42TDQyMy4zNCwxMjEuNkM0MjMuMzQsMTMzLjYsNDIzLjM0LDE1Ny42LDQyMy4zNCwxNzcuOTMzQzQyMy4zNCwxOTguMjY3LDQyMy4zNCwyMTQuOTMzLDQyMy4zNCwyMjMuMjY3TDQyMy4zNCwyMzEuNiIgY2xhc3M9ImVyIHJlbGF0aW9uc2hpcExpbmUiPjwvcGF0aD48cGF0aCBzdHlsZT0ic3Ryb2tlOiBncmF5OyBmaWxsOiBub25lOyIgbWFya2VyLXN0YXJ0PSJ1cmwoI09OTFlfT05FX1NUQVJUKSIgbWFya2VyLWVuZD0idXJsKCNaRVJPX09SX01PUkVfRU5EKSIgZD0iTTQyMy4zNCw0MzEuMkw0MjMuMzQsNDM5LjUzM0M0MjMuMzQsNDQ3Ljg2Nyw0MjMuMzQsNDY0LjUzMyw0MjMuMzQsNDgzLjAzM0M0MjMuMzQsNTAxLjUzMyw0MjMuMzQsNTIxLjg2Nyw0MjMuMzQsNTMyLjAzM0w0MjMuMzQsNTQyLjIiIGNsYXNzPSJlciByZWxhdGlvbnNoaXBMaW5lIj48L3BhdGg+PHBhdGggc3R5bGU9InN0cm9rZTogZ3JheTsgZmlsbDogbm9uZTsiIG1hcmtlci1zdGFydD0idXJsKCNaRVJPX09SX01PUkVfU1RBUlQpIiBtYXJrZXItZW5kPSJ1cmwoI09OTFlfT05FX0VORCkiIGQ9Ik01MTEuODA5LDM4MS4zMDRMNTQxLjMyNCwzOTcuOTU0QzU3MC44MzksNDE0LjYwMyw2MjkuODY5LDQ0Ny45MDEsNjU5LjM4NSw0NzQuNzE3QzY4OC45LDUwMS41MzMsNjg4LjksNTIxLjg2Nyw2ODguOSw1MzIuMDMzTDY4OC45LDU0Mi4yIiBjbGFzcz0iZXIgcmVsYXRpb25zaGlwTGluZSI+PC9wYXRoPjxwYXRoIHN0eWxlPSJzdHJva2U6IGdyYXk7IGZpbGw6IG5vbmU7IiBtYXJrZXItc3RhcnQ9InVybCgjT05MWV9PTkVfU1RBUlQpIiBtYXJrZXItZW5kPSJ1cmwoI1pFUk9fT1JfTU9SRV9FTkQpIiBkPSJNMTE4LjQyNCwxMzEuNkwxMTguNDI0LDEzOS45MzNDMTE4LjQyNCwxNDguMjY3LDExOC40MjQsMTY0LjkzMywxMTguNDI0LDE5MC43NjdDMTE4LjQyNCwyMTYuNiwxMTguNDI0LDI1MS42LDExOC40MjQsMjY5LjFMMTE4LjQyNCwyODYuNiIgY2xhc3M9ImVyIHJlbGF0aW9uc2hpcExpbmUiPjwvcGF0aD48cGF0aCBzdHlsZT0ic3Ryb2tlOiBncmF5OyBmaWxsOiBub25lOyIgbWFya2VyLXN0YXJ0PSJ1cmwoI09OTFlfT05FX1NUQVJUKSIgbWFya2VyLWVuZD0idXJsKCNaRVJPX09SX01PUkVfRU5EKSIgZD0iTTExOC40MjQsMTMxLjZMMTE4LjQyNCwxMzkuOTMzQzExOC40MjQsMTQ4LjI2NywxMTguNDI0LDE2NC45MzMsMTE4LjQyNCwxOTAuNzY3QzExOC40MjQsMjE2LjYsMTE4LjQyNCwyNTEuNiwxMTguNDI0LDI2OS4xTDExOC40MjQsMjg2LjYiIGNsYXNzPSJlciByZWxhdGlvbnNoaXBMaW5lIj48L3BhdGg+PHBhdGggc3R5bGU9InN0cm9rZTogZ3JheTsgZmlsbDogbm9uZTsiIG1hcmtlci1zdGFydD0idXJsKCNPTkxZX09ORV9TVEFSVCkiIG1hcmtlci1lbmQ9InVybCgjWkVST19PUl9NT1JFX0VORCkiIGQ9Ik0xMTguNDI0LDM3Ni4yTDExOC40MjQsMzkzLjdDMTE4LjQyNCw0MTEuMiwxMTguNDI0LDQ0Ni4yLDEyMi4zNjIsNDcyLjAzM0MxMjYuMzAxLDQ5Ny44NjcsMTM0LjE3Nyw1MTQuNTMzLDEzOC4xMTUsNTIyLjg2N0wxNDIuMDU0LDUzMS4yIiBjbGFzcz0iZXIgcmVsYXRpb25zaGlwTGluZSI+PC9wYXRoPjxwYXRoIHN0eWxlPSJzdHJva2U6IGdyYXk7IGZpbGw6IG5vbmU7IiBtYXJrZXItc3RhcnQ9InVybCgjT05MWV9PTkVfU1RBUlQpIiBtYXJrZXItZW5kPSJ1cmwoI1pFUk9fT1JfTU9SRV9FTkQpIiBkPSJNMzM0Ljg3MSw0MTMuNDc1TDMyMi43MDQsNDI0Ljc2M0MzMTAuNTM4LDQzNi4wNSwyODYuMjA0LDQ1OC42MjUsMjY2LjY3Nyw0NzguMjQ2QzI0Ny4xNSw0OTcuODY3LDIzMi40MjksNTE0LjUzMywyMjUuMDY5LDUyMi44NjdMMjE3LjcwOSw1MzEuMiIgY2xhc3M9ImVyIHJlbGF0aW9uc2hpcExpbmUiPjwvcGF0aD48ZyB0cmFuc2Zvcm09InRyYW5zbGF0ZSg2My4yNjQ1MDM0NzkwMDM5MDYsMjAgKSIgaWQ9ImVudGl0eS1VU0VSUy0xZTgyZTM5NS05MzZjLTU3YTctOGJhOS1iMDhmMDM1NzRiOTMiPjxyZWN0IGhlaWdodD0iMTExLjYwMDAwMDM4MTQ2OTczIiB3aWR0aD0iMTEwLjMxOTMzNjg5MTE3NDMyIiB5PSIwIiB4PSIwIiBjbGFzcz0iZXIgZW50aXR5Qm94Ij48L3JlY3Q+PHRleHQgdHJhbnNmb3JtPSJ0cmFuc2xhdGUoNTUuMTU5NjY4NDQ1NTg3MTYsMTEuODAwMDAwMTkwNzM0ODYzKSIgc3R5bGU9ImRvbWluYW50LWJhc2VsaW5lOiBtaWRkbGU7IHRleHQtYW5jaG9yOiBtaWRkbGU7IGZvbnQtc2l6ZTogMTJweDsiIHk9IjAiIHg9IjAiIGlkPSJ0ZXh0LWVudGl0eS1VU0VSUy0xZTgyZTM5NS05MzZjLTU3YTctOGJhOS1iMDhmMDM1NzRiOTMiIGNsYXNzPSJlciBlbnRpdHlMYWJlbCI+VVNFUlM8L3RleHQ+PHJlY3QgaGVpZ2h0PSIyMiIgd2lkdGg9IjM2LjIxOTE0MTAwNjQ2OTczIiB5PSIyMy42MDAwMDAzODE0Njk3MjciIHg9IjAiIGNsYXNzPSJlciBhdHRyaWJ1dGVCb3hPZGQiPjwvcmVjdD48dGV4dCB0cmFuc2Zvcm09InRyYW5zbGF0ZSg1LDM0LjYwMDAwMDM4MTQ2OTczKSIgc3R5bGU9ImRvbWluYW50LWJhc2VsaW5lOiBtaWRkbGU7IGZvbnQtc2l6ZTogMTAuMnB4OyIgeT0iMCIgeD0iMCIgaWQ9InRleHQtZW50aXR5LVVTRVJTLTFlODJlMzk1LTkzNmMtNTdhNy04YmE5LWIwOGYwMzU3NGI5My1hdHRyLTEtdHlwZSIgY2xhc3M9ImVyIGVudGl0eUxhYmVsIj5pbnQ8L3RleHQ+PHJlY3QgaGVpZ2h0PSIyMiIgd2lkdGg9IjUyLjAxMjUwMDc2MjkzOTQ1IiB5PSIyMy42MDAwMDAzODE0Njk3MjciIHg9IjM2LjIxOTE0MTAwNjQ2OTczIiBjbGFzcz0iZXIgYXR0cmlidXRlQm94T2RkIj48L3JlY3Q+PHRleHQgdHJhbnNmb3JtPSJ0cmFuc2xhdGUoNDEuMjE5MTQxMDA2NDY5NzMsMzQuNjAwMDAwMzgxNDY5NzMpIiBzdHlsZT0iZG9taW5hbnQtYmFzZWxpbmU6IG1pZGRsZTsgZm9udC1zaXplOiAxMC4ycHg7IiB5PSIwIiB4PSIwIiBpZD0idGV4dC1lbnRpdHktVVNFUlMtMWU4MmUzOTUtOTM2Yy01N2E3LThiYTktYjA4ZjAzNTc0YjkzLWF0dHItMS1uYW1lIiBjbGFzcz0iZXIgZW50aXR5TGFiZWwiPmlkPC90ZXh0PjxyZWN0IGhlaWdodD0iMjIiIHdpZHRoPSIyMi4wODc2OTUxMjE3NjUxMzciIHk9IjIzLjYwMDAwMDM4MTQ2OTcyNyIgeD0iODguMjMxNjQxNzY5NDA5MTgiIGNsYXNzPSJlciBhdHRyaWJ1dGVCb3hPZGQiPjwvcmVjdD48dGV4dCB0cmFuc2Zvcm09InRyYW5zbGF0ZSg5My4yMzE2NDE3Njk0MDkxOCwzNC42MDAwMDAzODE0Njk3MykiIHN0eWxlPSJkb21pbmFudC1iYXNlbGluZTogbWlkZGxlOyBmb250LXNpemU6IDEwLjJweDsiIHk9IjAiIHg9IjAiIGlkPSJ0ZXh0LWVudGl0eS1VU0VSUy0xZTgyZTM5NS05MzZjLTU3YTctOGJhOS1iMDhmMDM1NzRiOTMtYXR0ci0xLWtleSIgY2xhc3M9ImVyIGVudGl0eUxhYmVsIj5QSzwvdGV4dD48cmVjdCBoZWlnaHQ9IjIyIiB3aWR0aD0iMzYuMjE5MTQxMDA2NDY5NzMiIHk9IjQ1LjYwMDAwMDM4MTQ2OTczIiB4PSIwIiBjbGFzcz0iZXIgYXR0cmlidXRlQm94RXZlbiI+PC9yZWN0Pjx0ZXh0IHRyYW5zZm9ybT0idHJhbnNsYXRlKDUsNTYuNjAwMDAwMzgxNDY5NzMpIiBzdHlsZT0iZG9taW5hbnQtYmFzZWxpbmU6IG1pZGRsZTsgZm9udC1zaXplOiAxMC4ycHg7IiB5PSIwIiB4PSIwIiBpZD0idGV4dC1lbnRpdHktVVNFUlMtMWU4MmUzOTUtOTM2Yy01N2E3LThiYTktYjA4ZjAzNTc0YjkzLWF0dHItMi10eXBlIiBjbGFzcz0iZXIgZW50aXR5TGFiZWwiPnN0cmluZzwvdGV4dD48cmVjdCBoZWlnaHQ9IjIyIiB3aWR0aD0iNTIuMDEyNTAwNzYyOTM5NDUiIHk9IjQ1LjYwMDAwMDM4MTQ2OTczIiB4PSIzNi4yMTkxNDEwMDY0Njk3MyIgY2xhc3M9ImVyIGF0dHJpYnV0ZUJveEV2ZW4iPjwvcmVjdD48dGV4dCB0cmFuc2Zvcm09InRyYW5zbGF0ZSg0MS4yMTkxNDEwMDY0Njk3Myw1Ni42MDAwMDAzODE0Njk3MykiIHN0eWxlPSJkb21pbmFudC1iYXNlbGluZTogbWlkZGxlOyBmb250LXNpemU6IDEwLjJweDsiIHk9IjAiIHg9IjAiIGlkPSJ0ZXh0LWVudGl0eS1VU0VSUy0xZTgyZTM5NS05MzZjLTU3YTctOGJhOS1iMDhmMDM1NzRiOTMtYXR0ci0yLW5hbWUiIGNsYXNzPSJlciBlbnRpdHlMYWJlbCI+bmFtZTwvdGV4dD48cmVjdCBoZWlnaHQ9IjIyIiB3aWR0aD0iMjIuMDg3Njk1MTIxNzY1MTM3IiB5PSI0NS42MDAwMDAzODE0Njk3MyIgeD0iODguMjMxNjQxNzY5NDA5MTgiIGNsYXNzPSJlciBhdHRyaWJ1dGVCb3hFdmVuIj48L3JlY3Q+PHRleHQgdHJhbnNmb3JtPSJ0cmFuc2xhdGUoOTMuMjMxNjQxNzY5NDA5MTgsNTYuNjAwMDAwMzgxNDY5NzMpIiBzdHlsZT0iZG9taW5hbnQtYmFzZWxpbmU6IG1pZGRsZTsgZm9udC1zaXplOiAxMC4ycHg7IiB5PSIwIiB4PSIwIiBpZD0idGV4dC1lbnRpdHktVVNFUlMtMWU4MmUzOTUtOTM2Yy01N2E3LThiYTktYjA4ZjAzNTc0YjkzLWF0dHItMi1rZXkiIGNsYXNzPSJlciBlbnRpdHlMYWJlbCI+PC90ZXh0PjxyZWN0IGhlaWdodD0iMjIiIHdpZHRoPSIzNi4yMTkxNDEwMDY0Njk3MyIgeT0iNjcuNjAwMDAwMzgxNDY5NzMiIHg9IjAiIGNsYXNzPSJlciBhdHRyaWJ1dGVCb3hPZGQiPjwvcmVjdD48dGV4dCB0cmFuc2Zvcm09InRyYW5zbGF0ZSg1LDc4LjYwMDAwMDM4MTQ2OTczKSIgc3R5bGU9ImRvbWluYW50LWJhc2VsaW5lOiBtaWRkbGU7IGZvbnQtc2l6ZTogMTAuMnB4OyIgeT0iMCIgeD0iMCIgaWQ9InRleHQtZW50aXR5LVVTRVJTLTFlODJlMzk1LTkzNmMtNTdhNy04YmE5LWIwOGYwMzU3NGI5My1hdHRyLTMtdHlwZSIgY2xhc3M9ImVyIGVudGl0eUxhYmVsIj5zdHJpbmc8L3RleHQ+PHJlY3QgaGVpZ2h0PSIyMiIgd2lkdGg9IjUyLjAxMjUwMDc2MjkzOTQ1IiB5PSI2Ny42MDAwMDAzODE0Njk3MyIgeD0iMzYuMjE5MTQxMDA2NDY5NzMiIGNsYXNzPSJlciBhdHRyaWJ1dGVCb3hPZGQiPjwvcmVjdD48dGV4dCB0cmFuc2Zvcm09InRyYW5zbGF0ZSg0MS4yMTkxNDEwMDY0Njk3Myw3OC42MDAwMDAzODE0Njk3MykiIHN0eWxlPSJkb21pbmFudC1iYXNlbGluZTogbWlkZGxlOyBmb250LXNpemU6IDEwLjJweDsiIHk9IjAiIHg9IjAiIGlkPSJ0ZXh0LWVudGl0eS1VU0VSUy0xZTgyZTM5NS05MzZjLTU3YTctOGJhOS1iMDhmMDM1NzRiOTMtYXR0ci0zLW5hbWUiIGNsYXNzPSJlciBlbnRpdHlMYWJlbCI+ZW1haWw8L3RleHQ+PHJlY3QgaGVpZ2h0PSIyMiIgd2lkdGg9IjIyLjA4NzY5NTEyMTc2NTEzNyIgeT0iNjcuNjAwMDAwMzgxNDY5NzMiIHg9Ijg4LjIzMTY0MTc2OTQwOTE4IiBjbGFzcz0iZXIgYXR0cmlidXRlQm94T2RkIj48L3JlY3Q+PHRleHQgdHJhbnNmb3JtPSJ0cmFuc2xhdGUoOTMuMjMxNjQxNzY5NDA5MTgsNzguNjAwMDAwMzgxNDY5NzMpIiBzdHlsZT0iZG9taW5hbnQtYmFzZWxpbmU6IG1pZGRsZTsgZm9udC1zaXplOiAxMC4ycHg7IiB5PSIwIiB4PSIwIiBpZD0idGV4dC1lbnRpdHktVVNFUlMtMWU4MmUzOTUtOTM2Yy01N2E3LThiYTktYjA4ZjAzNTc0YjkzLWF0dHItMy1rZXkiIGNsYXNzPSJlciBlbnRpdHlMYWJlbCI+PC90ZXh0PjxyZWN0IGhlaWdodD0iMjIiIHdpZHRoPSIzNi4yMTkxNDEwMDY0Njk3MyIgeT0iODkuNjAwMDAwMzgxNDY5NzMiIHg9IjAiIGNsYXNzPSJlciBhdHRyaWJ1dGVCb3hFdmVuIj48L3JlY3Q+PHRleHQgdHJhbnNmb3JtPSJ0cmFuc2xhdGUoNSwxMDAuNjAwMDAwMzgxNDY5NzMpIiBzdHlsZT0iZG9taW5hbnQtYmFzZWxpbmU6IG1pZGRsZTsgZm9udC1zaXplOiAxMC4ycHg7IiB5PSIwIiB4PSIwIiBpZD0idGV4dC1lbnRpdHktVVNFUlMtMWU4MmUzOTUtOTM2Yy01N2E3LThiYTktYjA4ZjAzNTc0YjkzLWF0dHItNC10eXBlIiBjbGFzcz0iZXIgZW50aXR5TGFiZWwiPnN0cmluZzwvdGV4dD48cmVjdCBoZWlnaHQ9IjIyIiB3aWR0aD0iNTIuMDEyNTAwNzYyOTM5NDUiIHk9Ijg5LjYwMDAwMDM4MTQ2OTczIiB4PSIzNi4yMTkxNDEwMDY0Njk3MyIgY2xhc3M9ImVyIGF0dHJpYnV0ZUJveEV2ZW4iPjwvcmVjdD48dGV4dCB0cmFuc2Zvcm09InRyYW5zbGF0ZSg0MS4yMTkxNDEwMDY0Njk3MywxMDAuNjAwMDAwMzgxNDY5NzMpIiBzdHlsZT0iZG9taW5hbnQtYmFzZWxpbmU6IG1pZGRsZTsgZm9udC1zaXplOiAxMC4ycHg7IiB5PSIwIiB4PSIwIiBpZD0idGV4dC1lbnRpdHktVVNFUlMtMWU4MmUzOTUtOTM2Yy01N2E3LThiYTktYjA4ZjAzNTc0YjkzLWF0dHItNC1uYW1lIiBjbGFzcz0iZXIgZW50aXR5TGFiZWwiPnBhc3N3b3JkPC90ZXh0PjxyZWN0IGhlaWdodD0iMjIiIHdpZHRoPSIyMi4wODc2OTUxMjE3NjUxMzciIHk9Ijg5LjYwMDAwMDM4MTQ2OTczIiB4PSI4OC4yMzE2NDE3Njk0MDkxOCIgY2xhc3M9ImVyIGF0dHJpYnV0ZUJveEV2ZW4iPjwvcmVjdD48dGV4dCB0cmFuc2Zvcm09InRyYW5zbGF0ZSg5My4yMzE2NDE3Njk0MDkxOCwxMDAuNjAwMDAwMzgxNDY5NzMpIiBzdHlsZT0iZG9taW5hbnQtYmFzZWxpbmU6IG1pZGRsZTsgZm9udC1zaXplOiAxMC4ycHg7IiB5PSIwIiB4PSIwIiBpZD0idGV4dC1lbnRpdHktVVNFUlMtMWU4MmUzOTUtOTM2Yy01N2E3LThiYTktYjA4ZjAzNTc0YjkzLWF0dHItNC1rZXkiIGNsYXNzPSJlciBlbnRpdHlMYWJlbCI+PC90ZXh0PjwvZz48ZyB0cmFuc2Zvcm09InRyYW5zbGF0ZSgzNDAuNTUyOTgwNDIyOTczNjMsNDIgKSIgaWQ9ImVudGl0eS1DQVRFR09SSUVTLTA1MTExNWM4LTg3MDEtNWVmMi05NjExLWZmMWZkOWVhYTRiNyI+PHJlY3QgaGVpZ2h0PSI2Ny42MDAwMDAzODE0Njk3MyIgd2lkdGg9IjE2NS41NzM1MzY4NzI4NjM3NyIgeT0iMCIgeD0iMCIgY2xhc3M9ImVyIGVudGl0eUJveCI+PC9yZWN0Pjx0ZXh0IHRyYW5zZm9ybT0idHJhbnNsYXRlKDgyLjc4Njc2ODQzNjQzMTg4LDExLjgwMDAwMDE5MDczNDg2MykiIHN0eWxlPSJkb21pbmFudC1iYXNlbGluZTogbWlkZGxlOyB0ZXh0LWFuY2hvcjogbWlkZGxlOyBmb250LXNpemU6IDEycHg7IiB5PSIwIiB4PSIwIiBpZD0idGV4dC1lbnRpdHktQ0FURUdPUklFUy0wNTExMTVjOC04NzAxLTVlZjItOTYxMS1mZjFmZDllYWE0YjciIGNsYXNzPSJlciBlbnRpdHlMYWJlbCI+Q0FURUdPUklFUzwvdGV4dD48cmVjdCBoZWlnaHQ9IjIyIiB3aWR0aD0iNDUuOTAxMTcyNjM3OTM5NDUiIHk9IjIzLjYwMDAwMDM4MTQ2OTcyNyIgeD0iMCIgY2xhc3M9ImVyIGF0dHJpYnV0ZUJveE9kZCI+PC9yZWN0Pjx0ZXh0IHRyYW5zZm9ybT0idHJhbnNsYXRlKDUsMzQuNjAwMDAwMzgxNDY5NzMpIiBzdHlsZT0iZG9taW5hbnQtYmFzZWxpbmU6IG1pZGRsZTsgZm9udC1zaXplOiAxMC4ycHg7IiB5PSIwIiB4PSIwIiBpZD0idGV4dC1lbnRpdHktQ0FURUdPUklFUy0wNTExMTVjOC04NzAxLTVlZjItOTYxMS1mZjFmZDllYWE0YjctYXR0ci0xLXR5cGUiIGNsYXNzPSJlciBlbnRpdHlMYWJlbCI+aW50PC90ZXh0PjxyZWN0IGhlaWdodD0iMjIiIHdpZHRoPSIzNC45OTg5MjYxNjI3MTk3MyIgeT0iMjMuNjAwMDAwMzgxNDY5NzI3IiB4PSI0NS45MDExNzI2Mzc5Mzk0NSIgY2xhc3M9ImVyIGF0dHJpYnV0ZUJveE9kZCI+PC9yZWN0Pjx0ZXh0IHRyYW5zZm9ybT0idHJhbnNsYXRlKDUwLjkwMTE3MjYzNzkzOTQ1LDM0LjYwMDAwMDM4MTQ2OTczKSIgc3R5bGU9ImRvbWluYW50LWJhc2VsaW5lOiBtaWRkbGU7IGZvbnQtc2l6ZTogMTAuMnB4OyIgeT0iMCIgeD0iMCIgaWQ9InRleHQtZW50aXR5LUNBVEVHT1JJRVMtMDUxMTE1YzgtODcwMS01ZWYyLTk2MTEtZmYxZmQ5ZWFhNGI3LWF0dHItMS1uYW1lIiBjbGFzcz0iZXIgZW50aXR5TGFiZWwiPmlkPC90ZXh0PjxyZWN0IGhlaWdodD0iMjIiIHdpZHRoPSIyMi4wODc2OTUxMjE3NjUxMzciIHk9IjIzLjYwMDAwMDM4MTQ2OTcyNyIgeD0iODAuOTAwMDk4ODAwNjU5MTgiIGNsYXNzPSJlciBhdHRyaWJ1dGVCb3hPZGQiPjwvcmVjdD48dGV4dCB0cmFuc2Zvcm09InRyYW5zbGF0ZSg4NS45MDAwOTg4MDA2NTkxOCwzNC42MDAwMDAzODE0Njk3MykiIHN0eWxlPSJkb21pbmFudC1iYXNlbGluZTogbWlkZGxlOyBmb250LXNpemU6IDEwLjJweDsiIHk9IjAiIHg9IjAiIGlkPSJ0ZXh0LWVudGl0eS1DQVRFR09SSUVTLTA1MTExNWM4LTg3MDEtNWVmMi05NjExLWZmMWZkOWVhYTRiNy1hdHRyLTEta2V5IiBjbGFzcz0iZXIgZW50aXR5TGFiZWwiPlBLPC90ZXh0PjxyZWN0IGhlaWdodD0iMjIiIHdpZHRoPSI2Mi41ODU3NDI5NTA0Mzk0NSIgeT0iMjMuNjAwMDAwMzgxNDY5NzI3IiB4PSIxMDIuOTg3NzkzOTIyNDI0MzIiIGNsYXNzPSJlciBhdHRyaWJ1dGVCb3hPZGQiPjwvcmVjdD48dGV4dCB0cmFuc2Zvcm09InRyYW5zbGF0ZSgxMDcuOTg3NzkzOTIyNDI0MzIsMzQuNjAwMDAwMzgxNDY5NzMpIiBzdHlsZT0iZG9taW5hbnQtYmFzZWxpbmU6IG1pZGRsZTsgZm9udC1zaXplOiAxMC4ycHg7IiB5PSIwIiB4PSIwIiBpZD0idGV4dC1lbnRpdHktQ0FURUdPUklFUy0wNTExMTVjOC04NzAxLTVlZjItOTYxMS1mZjFmZDllYWE0YjctYXR0ci0xLWNvbW1lbnQiIGNsYXNzPSJlciBlbnRpdHlMYWJlbCI+PC90ZXh0PjxyZWN0IGhlaWdodD0iMjIiIHdpZHRoPSI0NS45MDExNzI2Mzc5Mzk0NSIgeT0iNDUuNjAwMDAwMzgxNDY5NzMiIHg9IjAiIGNsYXNzPSJlciBhdHRyaWJ1dGVCb3hFdmVuIj48L3JlY3Q+PHRleHQgdHJhbnNmb3JtPSJ0cmFuc2xhdGUoNSw1Ni42MDAwMDAzODE0Njk3MykiIHN0eWxlPSJkb21pbmFudC1iYXNlbGluZTogbWlkZGxlOyBmb250LXNpemU6IDEwLjJweDsiIHk9IjAiIHg9IjAiIGlkPSJ0ZXh0LWVudGl0eS1DQVRFR09SSUVTLTA1MTExNWM4LTg3MDEtNWVmMi05NjExLWZmMWZkOWVhYTRiNy1hdHRyLTItdHlwZSIgY2xhc3M9ImVyIGVudGl0eUxhYmVsIj52YXJjaGFyPC90ZXh0PjxyZWN0IGhlaWdodD0iMjIiIHdpZHRoPSIzNC45OTg5MjYxNjI3MTk3MyIgeT0iNDUuNjAwMDAwMzgxNDY5NzMiIHg9IjQ1LjkwMTE3MjYzNzkzOTQ1IiBjbGFzcz0iZXIgYXR0cmlidXRlQm94RXZlbiI+PC9yZWN0Pjx0ZXh0IHRyYW5zZm9ybT0idHJhbnNsYXRlKDUwLjkwMTE3MjYzNzkzOTQ1LDU2LjYwMDAwMDM4MTQ2OTczKSIgc3R5bGU9ImRvbWluYW50LWJhc2VsaW5lOiBtaWRkbGU7IGZvbnQtc2l6ZTogMTAuMnB4OyIgeT0iMCIgeD0iMCIgaWQ9InRleHQtZW50aXR5LUNBVEVHT1JJRVMtMDUxMTE1YzgtODcwMS01ZWYyLTk2MTEtZmYxZmQ5ZWFhNGI3LWF0dHItMi1uYW1lIiBjbGFzcz0iZXIgZW50aXR5TGFiZWwiPm5hbWU8L3RleHQ+PHJlY3QgaGVpZ2h0PSIyMiIgd2lkdGg9IjIyLjA4NzY5NTEyMTc2NTEzNyIgeT0iNDUuNjAwMDAwMzgxNDY5NzMiIHg9IjgwLjkwMDA5ODgwMDY1OTE4IiBjbGFzcz0iZXIgYXR0cmlidXRlQm94RXZlbiI+PC9yZWN0Pjx0ZXh0IHRyYW5zZm9ybT0idHJhbnNsYXRlKDg1LjkwMDA5ODgwMDY1OTE4LDU2LjYwMDAwMDM4MTQ2OTczKSIgc3R5bGU9ImRvbWluYW50LWJhc2VsaW5lOiBtaWRkbGU7IGZvbnQtc2l6ZTogMTAuMnB4OyIgeT0iMCIgeD0iMCIgaWQ9InRleHQtZW50aXR5LUNBVEVHT1JJRVMtMDUxMTE1YzgtODcwMS01ZWYyLTk2MTEtZmYxZmQ5ZWFhNGI3LWF0dHItMi1rZXkiIGNsYXNzPSJlciBlbnRpdHlMYWJlbCI+PC90ZXh0PjxyZWN0IGhlaWdodD0iMjIiIHdpZHRoPSI2Mi41ODU3NDI5NTA0Mzk0NSIgeT0iNDUuNjAwMDAwMzgxNDY5NzMiIHg9IjEwMi45ODc3OTM5MjI0MjQzMiIgY2xhc3M9ImVyIGF0dHJpYnV0ZUJveEV2ZW4iPjwvcmVjdD48dGV4dCB0cmFuc2Zvcm09InRyYW5zbGF0ZSgxMDcuOTg3NzkzOTIyNDI0MzIsNTYuNjAwMDAwMzgxNDY5NzMpIiBzdHlsZT0iZG9taW5hbnQtYmFzZWxpbmU6IG1pZGRsZTsgZm9udC1zaXplOiAxMC4ycHg7IiB5PSIwIiB4PSIwIiBpZD0idGV4dC1lbnRpdHktQ0FURUdPUklFUy0wNTExMTVjOC04NzAxLTVlZjItOTYxMS1mZjFmZDllYWE0YjctYXR0ci0yLWNvbW1lbnQiIGNsYXNzPSJlciBlbnRpdHlMYWJlbCI+NTAsIFVOSVFVRTwvdGV4dD48L2c+PGcgdHJhbnNmb3JtPSJ0cmFuc2xhdGUoMzM0Ljg3MDk1MDY5ODg1MjU0LDIzMS41OTk5OTg0NzQxMjExICkiIGlkPSJlbnRpdHktUFJPRFVDVFMtMzYyYzQ0MmEtNDYzYi01OTJhLWFhMGQtODZiYzViMjFjMmY0Ij48cmVjdCBoZWlnaHQ9IjE5OS42MDAwMDAzODE0Njk3MyIgd2lkdGg9IjE3Ni45Mzc1OTgyMjg0NTQ2IiB5PSIwIiB4PSIwIiBjbGFzcz0iZXIgZW50aXR5Qm94Ij48L3JlY3Q+PHRleHQgdHJhbnNmb3JtPSJ0cmFuc2xhdGUoODguNDY4Nzk5MTE0MjI3MywxMS44MDAwMDAxOTA3MzQ4NjMpIiBzdHlsZT0iZG9taW5hbnQtYmFzZWxpbmU6IG1pZGRsZTsgdGV4dC1hbmNob3I6IG1pZGRsZTsgZm9udC1zaXplOiAxMnB4OyIgeT0iMCIgeD0iMCIgaWQ9InRleHQtZW50aXR5LVBST0RVQ1RTLTM2MmM0NDJhLTQ2M2ItNTkyYS1hYTBkLTg2YmM1YjIxYzJmNCIgY2xhc3M9ImVyIGVudGl0eUxhYmVsIj5QUk9EVUNUUzwvdGV4dD48cmVjdCBoZWlnaHQ9IjIyIiB3aWR0aD0iNDYuMjMwNDY4NzUiIHk9IjIzLjYwMDAwMDM4MTQ2OTcyNyIgeD0iMCIgY2xhc3M9ImVyIGF0dHJpYnV0ZUJveE9kZCI+PC9yZWN0Pjx0ZXh0IHRyYW5zZm9ybT0idHJhbnNsYXRlKDUsMzQuNjAwMDAwMzgxNDY5NzMpIiBzdHlsZT0iZG9taW5hbnQtYmFzZWxpbmU6IG1pZGRsZTsgZm9udC1zaXplOiAxMC4ycHg7IiB5PSIwIiB4PSIwIiBpZD0idGV4dC1lbnRpdHktUFJPRFVDVFMtMzYyYzQ0MmEtNDYzYi01OTJhLWFhMGQtODZiYzViMjFjMmY0LWF0dHItMS10eXBlIiBjbGFzcz0iZXIgZW50aXR5TGFiZWwiPmludDwvdGV4dD48cmVjdCBoZWlnaHQ9IjIyIiB3aWR0aD0iNjMuNTQ5OTk5MjM3MDYwNTUiIHk9IjIzLjYwMDAwMDM4MTQ2OTcyNyIgeD0iNDYuMjMwNDY4NzUiIGNsYXNzPSJlciBhdHRyaWJ1dGVCb3hPZGQiPjwvcmVjdD48dGV4dCB0cmFuc2Zvcm09InRyYW5zbGF0ZSg1MS4yMzA0Njg3NSwzNC42MDAwMDAzODE0Njk3MykiIHN0eWxlPSJkb21pbmFudC1iYXNlbGluZTogbWlkZGxlOyBmb250LXNpemU6IDEwLjJweDsiIHk9IjAiIHg9IjAiIGlkPSJ0ZXh0LWVudGl0eS1QUk9EVUNUUy0zNjJjNDQyYS00NjNiLTU5MmEtYWEwZC04NmJjNWIyMWMyZjQtYXR0ci0xLW5hbWUiIGNsYXNzPSJlciBlbnRpdHlMYWJlbCI+aWQ8L3RleHQ+PHJlY3QgaGVpZ2h0PSIyMiIgd2lkdGg9IjIyLjA4NzY5NTEyMTc2NTEzNyIgeT0iMjMuNjAwMDAwMzgxNDY5NzI3IiB4PSIxMDkuNzgwNDY3OTg3MDYwNTUiIGNsYXNzPSJlciBhdHRyaWJ1dGVCb3hPZGQiPjwvcmVjdD48dGV4dCB0cmFuc2Zvcm09InRyYW5zbGF0ZSgxMTQuNzgwNDY3OTg3MDYwNTUsMzQuNjAwMDAwMzgxNDY5NzMpIiBzdHlsZT0iZG9taW5hbnQtYmFzZWxpbmU6IG1pZGRsZTsgZm9udC1zaXplOiAxMC4ycHg7IiB5PSIwIiB4PSIwIiBpZD0idGV4dC1lbnRpdHktUFJPRFVDVFMtMzYyYzQ0MmEtNDYzYi01OTJhLWFhMGQtODZiYzViMjFjMmY0LWF0dHItMS1rZXkiIGNsYXNzPSJlciBlbnRpdHlMYWJlbCI+UEs8L3RleHQ+PHJlY3QgaGVpZ2h0PSIyMiIgd2lkdGg9IjQ1LjA2OTQzNTExOTYyODkwNiIgeT0iMjMuNjAwMDAwMzgxNDY5NzI3IiB4PSIxMzEuODY4MTYzMTA4ODI1NjgiIGNsYXNzPSJlciBhdHRyaWJ1dGVCb3hPZGQiPjwvcmVjdD48dGV4dCB0cmFuc2Zvcm09InRyYW5zbGF0ZSgxMzYuODY4MTYzMTA4ODI1NjgsMzQuNjAwMDAwMzgxNDY5NzMpIiBzdHlsZT0iZG9taW5hbnQtYmFzZWxpbmU6IG1pZGRsZTsgZm9udC1zaXplOiAxMC4ycHg7IiB5PSIwIiB4PSIwIiBpZD0idGV4dC1lbnRpdHktUFJPRFVDVFMtMzYyYzQ0MmEtNDYzYi01OTJhLWFhMGQtODZiYzViMjFjMmY0LWF0dHItMS1jb21tZW50IiBjbGFzcz0iZXIgZW50aXR5TGFiZWwiPjwvdGV4dD48cmVjdCBoZWlnaHQ9IjIyIiB3aWR0aD0iNDYuMjMwNDY4NzUiIHk9IjQ1LjYwMDAwMDM4MTQ2OTczIiB4PSIwIiBjbGFzcz0iZXIgYXR0cmlidXRlQm94RXZlbiI+PC9yZWN0Pjx0ZXh0IHRyYW5zZm9ybT0idHJhbnNsYXRlKDUsNTYuNjAwMDAwMzgxNDY5NzMpIiBzdHlsZT0iZG9taW5hbnQtYmFzZWxpbmU6IG1pZGRsZTsgZm9udC1zaXplOiAxMC4ycHg7IiB5PSIwIiB4PSIwIiBpZD0idGV4dC1lbnRpdHktUFJPRFVDVFMtMzYyYzQ0MmEtNDYzYi01OTJhLWFhMGQtODZiYzViMjFjMmY0LWF0dHItMi10eXBlIiBjbGFzcz0iZXIgZW50aXR5TGFiZWwiPmludDwvdGV4dD48cmVjdCBoZWlnaHQ9IjIyIiB3aWR0aD0iNjMuNTQ5OTk5MjM3MDYwNTUiIHk9IjQ1LjYwMDAwMDM4MTQ2OTczIiB4PSI0Ni4yMzA0Njg3NSIgY2xhc3M9ImVyIGF0dHJpYnV0ZUJveEV2ZW4iPjwvcmVjdD48dGV4dCB0cmFuc2Zvcm09InRyYW5zbGF0ZSg1MS4yMzA0Njg3NSw1Ni42MDAwMDAzODE0Njk3MykiIHN0eWxlPSJkb21pbmFudC1iYXNlbGluZTogbWlkZGxlOyBmb250LXNpemU6IDEwLjJweDsiIHk9IjAiIHg9IjAiIGlkPSJ0ZXh0LWVudGl0eS1QUk9EVUNUUy0zNjJjNDQyYS00NjNiLTU5MmEtYWEwZC04NmJjNWIyMWMyZjQtYXR0ci0yLW5hbWUiIGNsYXNzPSJlciBlbnRpdHlMYWJlbCI+Y29kZTwvdGV4dD48cmVjdCBoZWlnaHQ9IjIyIiB3aWR0aD0iMjIuMDg3Njk1MTIxNzY1MTM3IiB5PSI0NS42MDAwMDAzODE0Njk3MyIgeD0iMTA5Ljc4MDQ2Nzk4NzA2MDU1IiBjbGFzcz0iZXIgYXR0cmlidXRlQm94RXZlbiI+PC9yZWN0Pjx0ZXh0IHRyYW5zZm9ybT0idHJhbnNsYXRlKDExNC43ODA0Njc5ODcwNjA1NSw1Ni42MDAwMDAzODE0Njk3MykiIHN0eWxlPSJkb21pbmFudC1iYXNlbGluZTogbWlkZGxlOyBmb250LXNpemU6IDEwLjJweDsiIHk9IjAiIHg9IjAiIGlkPSJ0ZXh0LWVudGl0eS1QUk9EVUNUUy0zNjJjNDQyYS00NjNiLTU5MmEtYWEwZC04NmJjNWIyMWMyZjQtYXR0ci0yLWtleSIgY2xhc3M9ImVyIGVudGl0eUxhYmVsIj48L3RleHQ+PHJlY3QgaGVpZ2h0PSIyMiIgd2lkdGg9IjQ1LjA2OTQzNTExOTYyODkwNiIgeT0iNDUuNjAwMDAwMzgxNDY5NzMiIHg9IjEzMS44NjgxNjMxMDg4MjU2OCIgY2xhc3M9ImVyIGF0dHJpYnV0ZUJveEV2ZW4iPjwvcmVjdD48dGV4dCB0cmFuc2Zvcm09InRyYW5zbGF0ZSgxMzYuODY4MTYzMTA4ODI1NjgsNTYuNjAwMDAwMzgxNDY5NzMpIiBzdHlsZT0iZG9taW5hbnQtYmFzZWxpbmU6IG1pZGRsZTsgZm9udC1zaXplOiAxMC4ycHg7IiB5PSIwIiB4PSIwIiBpZD0idGV4dC1lbnRpdHktUFJPRFVDVFMtMzYyYzQ0MmEtNDYzYi01OTJhLWFhMGQtODZiYzViMjFjMmY0LWF0dHItMi1jb21tZW50IiBjbGFzcz0iZXIgZW50aXR5TGFiZWwiPlVOSVFVRTwvdGV4dD48cmVjdCBoZWlnaHQ9IjIyIiB3aWR0aD0iNDYuMjMwNDY4NzUiIHk9IjY3LjYwMDAwMDM4MTQ2OTczIiB4PSIwIiBjbGFzcz0iZXIgYXR0cmlidXRlQm94T2RkIj48L3JlY3Q+PHRleHQgdHJhbnNmb3JtPSJ0cmFuc2xhdGUoNSw3OC42MDAwMDAzODE0Njk3MykiIHN0eWxlPSJkb21pbmFudC1iYXNlbGluZTogbWlkZGxlOyBmb250LXNpemU6IDEwLjJweDsiIHk9IjAiIHg9IjAiIGlkPSJ0ZXh0LWVudGl0eS1QUk9EVUNUUy0zNjJjNDQyYS00NjNiLTU5MmEtYWEwZC04NmJjNWIyMWMyZjQtYXR0ci0zLXR5cGUiIGNsYXNzPSJlciBlbnRpdHlMYWJlbCI+dmFyY2hhcjwvdGV4dD48cmVjdCBoZWlnaHQ9IjIyIiB3aWR0aD0iNjMuNTQ5OTk5MjM3MDYwNTUiIHk9IjY3LjYwMDAwMDM4MTQ2OTczIiB4PSI0Ni4yMzA0Njg3NSIgY2xhc3M9ImVyIGF0dHJpYnV0ZUJveE9kZCI+PC9yZWN0Pjx0ZXh0IHRyYW5zZm9ybT0idHJhbnNsYXRlKDUxLjIzMDQ2ODc1LDc4LjYwMDAwMDM4MTQ2OTczKSIgc3R5bGU9ImRvbWluYW50LWJhc2VsaW5lOiBtaWRkbGU7IGZvbnQtc2l6ZTogMTAuMnB4OyIgeT0iMCIgeD0iMCIgaWQ9InRleHQtZW50aXR5LVBST0RVQ1RTLTM2MmM0NDJhLTQ2M2ItNTkyYS1hYTBkLTg2YmM1YjIxYzJmNC1hdHRyLTMtbmFtZSIgY2xhc3M9ImVyIGVudGl0eUxhYmVsIj5uYW1lPC90ZXh0PjxyZWN0IGhlaWdodD0iMjIiIHdpZHRoPSIyMi4wODc2OTUxMjE3NjUxMzciIHk9IjY3LjYwMDAwMDM4MTQ2OTczIiB4PSIxMDkuNzgwNDY3OTg3MDYwNTUiIGNsYXNzPSJlciBhdHRyaWJ1dGVCb3hPZGQiPjwvcmVjdD48dGV4dCB0cmFuc2Zvcm09InRyYW5zbGF0ZSgxMTQuNzgwNDY3OTg3MDYwNTUsNzguNjAwMDAwMzgxNDY5NzMpIiBzdHlsZT0iZG9taW5hbnQtYmFzZWxpbmU6IG1pZGRsZTsgZm9udC1zaXplOiAxMC4ycHg7IiB5PSIwIiB4PSIwIiBpZD0idGV4dC1lbnRpdHktUFJPRFVDVFMtMzYyYzQ0MmEtNDYzYi01OTJhLWFhMGQtODZiYzViMjFjMmY0LWF0dHItMy1rZXkiIGNsYXNzPSJlciBlbnRpdHlMYWJlbCI+PC90ZXh0PjxyZWN0IGhlaWdodD0iMjIiIHdpZHRoPSI0NS4wNjk0MzUxMTk2Mjg5MDYiIHk9IjY3LjYwMDAwMDM4MTQ2OTczIiB4PSIxMzEuODY4MTYzMTA4ODI1NjgiIGNsYXNzPSJlciBhdHRyaWJ1dGVCb3hPZGQiPjwvcmVjdD48dGV4dCB0cmFuc2Zvcm09InRyYW5zbGF0ZSgxMzYuODY4MTYzMTA4ODI1NjgsNzguNjAwMDAwMzgxNDY5NzMpIiBzdHlsZT0iZG9taW5hbnQtYmFzZWxpbmU6IG1pZGRsZTsgZm9udC1zaXplOiAxMC4ycHg7IiB5PSIwIiB4PSIwIiBpZD0idGV4dC1lbnRpdHktUFJPRFVDVFMtMzYyYzQ0MmEtNDYzYi01OTJhLWFhMGQtODZiYzViMjFjMmY0LWF0dHItMy1jb21tZW50IiBjbGFzcz0iZXIgZW50aXR5TGFiZWwiPjEwMDwvdGV4dD48cmVjdCBoZWlnaHQ9IjIyIiB3aWR0aD0iNDYuMjMwNDY4NzUiIHk9Ijg5LjYwMDAwMDM4MTQ2OTczIiB4PSIwIiBjbGFzcz0iZXIgYXR0cmlidXRlQm94RXZlbiI+PC9yZWN0Pjx0ZXh0IHRyYW5zZm9ybT0idHJhbnNsYXRlKDUsMTAwLjYwMDAwMDM4MTQ2OTczKSIgc3R5bGU9ImRvbWluYW50LWJhc2VsaW5lOiBtaWRkbGU7IGZvbnQtc2l6ZTogMTAuMnB4OyIgeT0iMCIgeD0iMCIgaWQ9InRleHQtZW50aXR5LVBST0RVQ1RTLTM2MmM0NDJhLTQ2M2ItNTkyYS1hYTBkLTg2YmM1YjIxYzJmNC1hdHRyLTQtdHlwZSIgY2xhc3M9ImVyIGVudGl0eUxhYmVsIj50ZXh0PC90ZXh0PjxyZWN0IGhlaWdodD0iMjIiIHdpZHRoPSI2My41NDk5OTkyMzcwNjA1NSIgeT0iODkuNjAwMDAwMzgxNDY5NzMiIHg9IjQ2LjIzMDQ2ODc1IiBjbGFzcz0iZXIgYXR0cmlidXRlQm94RXZlbiI+PC9yZWN0Pjx0ZXh0IHRyYW5zZm9ybT0idHJhbnNsYXRlKDUxLjIzMDQ2ODc1LDEwMC42MDAwMDAzODE0Njk3MykiIHN0eWxlPSJkb21pbmFudC1iYXNlbGluZTogbWlkZGxlOyBmb250LXNpemU6IDEwLjJweDsiIHk9IjAiIHg9IjAiIGlkPSJ0ZXh0LWVudGl0eS1QUk9EVUNUUy0zNjJjNDQyYS00NjNiLTU5MmEtYWEwZC04NmJjNWIyMWMyZjQtYXR0ci00LW5hbWUiIGNsYXNzPSJlciBlbnRpdHlMYWJlbCI+ZGVzY3JpcHRpb248L3RleHQ+PHJlY3QgaGVpZ2h0PSIyMiIgd2lkdGg9IjIyLjA4NzY5NTEyMTc2NTEzNyIgeT0iODkuNjAwMDAwMzgxNDY5NzMiIHg9IjEwOS43ODA0Njc5ODcwNjA1NSIgY2xhc3M9ImVyIGF0dHJpYnV0ZUJveEV2ZW4iPjwvcmVjdD48dGV4dCB0cmFuc2Zvcm09InRyYW5zbGF0ZSgxMTQuNzgwNDY3OTg3MDYwNTUsMTAwLjYwMDAwMDM4MTQ2OTczKSIgc3R5bGU9ImRvbWluYW50LWJhc2VsaW5lOiBtaWRkbGU7IGZvbnQtc2l6ZTogMTAuMnB4OyIgeT0iMCIgeD0iMCIgaWQ9InRleHQtZW50aXR5LVBST0RVQ1RTLTM2MmM0NDJhLTQ2M2ItNTkyYS1hYTBkLTg2YmM1YjIxYzJmNC1hdHRyLTQta2V5IiBjbGFzcz0iZXIgZW50aXR5TGFiZWwiPjwvdGV4dD48cmVjdCBoZWlnaHQ9IjIyIiB3aWR0aD0iNDUuMDY5NDM1MTE5NjI4OTA2IiB5PSI4OS42MDAwMDAzODE0Njk3MyIgeD0iMTMxLjg2ODE2MzEwODgyNTY4IiBjbGFzcz0iZXIgYXR0cmlidXRlQm94RXZlbiI+PC9yZWN0Pjx0ZXh0IHRyYW5zZm9ybT0idHJhbnNsYXRlKDEzNi44NjgxNjMxMDg4MjU2OCwxMDAuNjAwMDAwMzgxNDY5NzMpIiBzdHlsZT0iZG9taW5hbnQtYmFzZWxpbmU6IG1pZGRsZTsgZm9udC1zaXplOiAxMC4ycHg7IiB5PSIwIiB4PSIwIiBpZD0idGV4dC1lbnRpdHktUFJPRFVDVFMtMzYyYzQ0MmEtNDYzYi01OTJhLWFhMGQtODZiYzViMjFjMmY0LWF0dHItNC1jb21tZW50IiBjbGFzcz0iZXIgZW50aXR5TGFiZWwiPjwvdGV4dD48cmVjdCBoZWlnaHQ9IjIyIiB3aWR0aD0iNDYuMjMwNDY4NzUiIHk9IjExMS42MDAwMDAzODE0Njk3MyIgeD0iMCIgY2xhc3M9ImVyIGF0dHJpYnV0ZUJveE9kZCI+PC9yZWN0Pjx0ZXh0IHRyYW5zZm9ybT0idHJhbnNsYXRlKDUsMTIyLjYwMDAwMDM4MTQ2OTczKSIgc3R5bGU9ImRvbWluYW50LWJhc2VsaW5lOiBtaWRkbGU7IGZvbnQtc2l6ZTogMTAuMnB4OyIgeT0iMCIgeD0iMCIgaWQ9InRleHQtZW50aXR5LVBST0RVQ1RTLTM2MmM0NDJhLTQ2M2ItNTkyYS1hYTBkLTg2YmM1YjIxYzJmNC1hdHRyLTUtdHlwZSIgY2xhc3M9ImVyIGVudGl0eUxhYmVsIj5kZWNpbWFsPC90ZXh0PjxyZWN0IGhlaWdodD0iMjIiIHdpZHRoPSI2My41NDk5OTkyMzcwNjA1NSIgeT0iMTExLjYwMDAwMDM4MTQ2OTczIiB4PSI0Ni4yMzA0Njg3NSIgY2xhc3M9ImVyIGF0dHJpYnV0ZUJveE9kZCI+PC9yZWN0Pjx0ZXh0IHRyYW5zZm9ybT0idHJhbnNsYXRlKDUxLjIzMDQ2ODc1LDEyMi42MDAwMDAzODE0Njk3MykiIHN0eWxlPSJkb21pbmFudC1iYXNlbGluZTogbWlkZGxlOyBmb250LXNpemU6IDEwLjJweDsiIHk9IjAiIHg9IjAiIGlkPSJ0ZXh0LWVudGl0eS1QUk9EVUNUUy0zNjJjNDQyYS00NjNiLTU5MmEtYWEwZC04NmJjNWIyMWMyZjQtYXR0ci01LW5hbWUiIGNsYXNzPSJlciBlbnRpdHlMYWJlbCI+cHJpY2U8L3RleHQ+PHJlY3QgaGVpZ2h0PSIyMiIgd2lkdGg9IjIyLjA4NzY5NTEyMTc2NTEzNyIgeT0iMTExLjYwMDAwMDM4MTQ2OTczIiB4PSIxMDkuNzgwNDY3OTg3MDYwNTUiIGNsYXNzPSJlciBhdHRyaWJ1dGVCb3hPZGQiPjwvcmVjdD48dGV4dCB0cmFuc2Zvcm09InRyYW5zbGF0ZSgxMTQuNzgwNDY3OTg3MDYwNTUsMTIyLjYwMDAwMDM4MTQ2OTczKSIgc3R5bGU9ImRvbWluYW50LWJhc2VsaW5lOiBtaWRkbGU7IGZvbnQtc2l6ZTogMTAuMnB4OyIgeT0iMCIgeD0iMCIgaWQ9InRleHQtZW50aXR5LVBST0RVQ1RTLTM2MmM0NDJhLTQ2M2ItNTkyYS1hYTBkLTg2YmM1YjIxYzJmNC1hdHRyLTUta2V5IiBjbGFzcz0iZXIgZW50aXR5TGFiZWwiPjwvdGV4dD48cmVjdCBoZWlnaHQ9IjIyIiB3aWR0aD0iNDUuMDY5NDM1MTE5NjI4OTA2IiB5PSIxMTEuNjAwMDAwMzgxNDY5NzMiIHg9IjEzMS44NjgxNjMxMDg4MjU2OCIgY2xhc3M9ImVyIGF0dHJpYnV0ZUJveE9kZCI+PC9yZWN0Pjx0ZXh0IHRyYW5zZm9ybT0idHJhbnNsYXRlKDEzNi44NjgxNjMxMDg4MjU2OCwxMjIuNjAwMDAwMzgxNDY5NzMpIiBzdHlsZT0iZG9taW5hbnQtYmFzZWxpbmU6IG1pZGRsZTsgZm9udC1zaXplOiAxMC4ycHg7IiB5PSIwIiB4PSIwIiBpZD0idGV4dC1lbnRpdHktUFJPRFVDVFMtMzYyYzQ0MmEtNDYzYi01OTJhLWFhMGQtODZiYzViMjFjMmY0LWF0dHItNS1jb21tZW50IiBjbGFzcz0iZXIgZW50aXR5TGFiZWwiPjEwLCAyPC90ZXh0PjxyZWN0IGhlaWdodD0iMjIiIHdpZHRoPSI0Ni4yMzA0Njg3NSIgeT0iMTMzLjYwMDAwMDM4MTQ2OTczIiB4PSIwIiBjbGFzcz0iZXIgYXR0cmlidXRlQm94RXZlbiI+PC9yZWN0Pjx0ZXh0IHRyYW5zZm9ybT0idHJhbnNsYXRlKDUsMTQ0LjYwMDAwMDM4MTQ2OTczKSIgc3R5bGU9ImRvbWluYW50LWJhc2VsaW5lOiBtaWRkbGU7IGZvbnQtc2l6ZTogMTAuMnB4OyIgeT0iMCIgeD0iMCIgaWQ9InRleHQtZW50aXR5LVBST0RVQ1RTLTM2MmM0NDJhLTQ2M2ItNTkyYS1hYTBkLTg2YmM1YjIxYzJmNC1hdHRyLTYtdHlwZSIgY2xhc3M9ImVyIGVudGl0eUxhYmVsIj5pbnQ8L3RleHQ+PHJlY3QgaGVpZ2h0PSIyMiIgd2lkdGg9IjYzLjU0OTk5OTIzNzA2MDU1IiB5PSIxMzMuNjAwMDAwMzgxNDY5NzMiIHg9IjQ2LjIzMDQ2ODc1IiBjbGFzcz0iZXIgYXR0cmlidXRlQm94RXZlbiI+PC9yZWN0Pjx0ZXh0IHRyYW5zZm9ybT0idHJhbnNsYXRlKDUxLjIzMDQ2ODc1LDE0NC42MDAwMDAzODE0Njk3MykiIHN0eWxlPSJkb21pbmFudC1iYXNlbGluZTogbWlkZGxlOyBmb250LXNpemU6IDEwLjJweDsiIHk9IjAiIHg9IjAiIGlkPSJ0ZXh0LWVudGl0eS1QUk9EVUNUUy0zNjJjNDQyYS00NjNiLTU5MmEtYWEwZC04NmJjNWIyMWMyZjQtYXR0ci02LW5hbWUiIGNsYXNzPSJlciBlbnRpdHlMYWJlbCI+c3RvY2s8L3RleHQ+PHJlY3QgaGVpZ2h0PSIyMiIgd2lkdGg9IjIyLjA4NzY5NTEyMTc2NTEzNyIgeT0iMTMzLjYwMDAwMDM4MTQ2OTczIiB4PSIxMDkuNzgwNDY3OTg3MDYwNTUiIGNsYXNzPSJlciBhdHRyaWJ1dGVCb3hFdmVuIj48L3JlY3Q+PHRleHQgdHJhbnNmb3JtPSJ0cmFuc2xhdGUoMTE0Ljc4MDQ2Nzk4NzA2MDU1LDE0NC42MDAwMDAzODE0Njk3MykiIHN0eWxlPSJkb21pbmFudC1iYXNlbGluZTogbWlkZGxlOyBmb250LXNpemU6IDEwLjJweDsiIHk9IjAiIHg9IjAiIGlkPSJ0ZXh0LWVudGl0eS1QUk9EVUNUUy0zNjJjNDQyYS00NjNiLTU5MmEtYWEwZC04NmJjNWIyMWMyZjQtYXR0ci02LWtleSIgY2xhc3M9ImVyIGVudGl0eUxhYmVsIj48L3RleHQ+PHJlY3QgaGVpZ2h0PSIyMiIgd2lkdGg9IjQ1LjA2OTQzNTExOTYyODkwNiIgeT0iMTMzLjYwMDAwMDM4MTQ2OTczIiB4PSIxMzEuODY4MTYzMTA4ODI1NjgiIGNsYXNzPSJlciBhdHRyaWJ1dGVCb3hFdmVuIj48L3JlY3Q+PHRleHQgdHJhbnNmb3JtPSJ0cmFuc2xhdGUoMTM2Ljg2ODE2MzEwODgyNTY4LDE0NC42MDAwMDAzODE0Njk3MykiIHN0eWxlPSJkb21pbmFudC1iYXNlbGluZTogbWlkZGxlOyBmb250LXNpemU6IDEwLjJweDsiIHk9IjAiIHg9IjAiIGlkPSJ0ZXh0LWVudGl0eS1QUk9EVUNUUy0zNjJjNDQyYS00NjNiLTU5MmEtYWEwZC04NmJjNWIyMWMyZjQtYXR0ci02LWNvbW1lbnQiIGNsYXNzPSJlciBlbnRpdHlMYWJlbCI+PC90ZXh0PjxyZWN0IGhlaWdodD0iMjIiIHdpZHRoPSI0Ni4yMzA0Njg3NSIgeT0iMTU1LjYwMDAwMDM4MTQ2OTczIiB4PSIwIiBjbGFzcz0iZXIgYXR0cmlidXRlQm94T2RkIj48L3JlY3Q+PHRleHQgdHJhbnNmb3JtPSJ0cmFuc2xhdGUoNSwxNjYuNjAwMDAwMzgxNDY5NzMpIiBzdHlsZT0iZG9taW5hbnQtYmFzZWxpbmU6IG1pZGRsZTsgZm9udC1zaXplOiAxMC4ycHg7IiB5PSIwIiB4PSIwIiBpZD0idGV4dC1lbnRpdHktUFJPRFVDVFMtMzYyYzQ0MmEtNDYzYi01OTJhLWFhMGQtODZiYzViMjFjMmY0LWF0dHItNy10eXBlIiBjbGFzcz0iZXIgZW50aXR5TGFiZWwiPmludDwvdGV4dD48cmVjdCBoZWlnaHQ9IjIyIiB3aWR0aD0iNjMuNTQ5OTk5MjM3MDYwNTUiIHk9IjE1NS42MDAwMDAzODE0Njk3MyIgeD0iNDYuMjMwNDY4NzUiIGNsYXNzPSJlciBhdHRyaWJ1dGVCb3hPZGQiPjwvcmVjdD48dGV4dCB0cmFuc2Zvcm09InRyYW5zbGF0ZSg1MS4yMzA0Njg3NSwxNjYuNjAwMDAwMzgxNDY5NzMpIiBzdHlsZT0iZG9taW5hbnQtYmFzZWxpbmU6IG1pZGRsZTsgZm9udC1zaXplOiAxMC4ycHg7IiB5PSIwIiB4PSIwIiBpZD0idGV4dC1lbnRpdHktUFJPRFVDVFMtMzYyYzQ0MmEtNDYzYi01OTJhLWFhMGQtODZiYzViMjFjMmY0LWF0dHItNy1uYW1lIiBjbGFzcz0iZXIgZW50aXR5TGFiZWwiPmNhdGVnb3J5X2lkPC90ZXh0PjxyZWN0IGhlaWdodD0iMjIiIHdpZHRoPSIyMi4wODc2OTUxMjE3NjUxMzciIHk9IjE1NS42MDAwMDAzODE0Njk3MyIgeD0iMTA5Ljc4MDQ2Nzk4NzA2MDU1IiBjbGFzcz0iZXIgYXR0cmlidXRlQm94T2RkIj48L3JlY3Q+PHRleHQgdHJhbnNmb3JtPSJ0cmFuc2xhdGUoMTE0Ljc4MDQ2Nzk4NzA2MDU1LDE2Ni42MDAwMDAzODE0Njk3MykiIHN0eWxlPSJkb21pbmFudC1iYXNlbGluZTogbWlkZGxlOyBmb250LXNpemU6IDEwLjJweDsiIHk9IjAiIHg9IjAiIGlkPSJ0ZXh0LWVudGl0eS1QUk9EVUNUUy0zNjJjNDQyYS00NjNiLTU5MmEtYWEwZC04NmJjNWIyMWMyZjQtYXR0ci03LWtleSIgY2xhc3M9ImVyIGVudGl0eUxhYmVsIj5GSzwvdGV4dD48cmVjdCBoZWlnaHQ9IjIyIiB3aWR0aD0iNDUuMDY5NDM1MTE5NjI4OTA2IiB5PSIxNTUuNjAwMDAwMzgxNDY5NzMiIHg9IjEzMS44NjgxNjMxMDg4MjU2OCIgY2xhc3M9ImVyIGF0dHJpYnV0ZUJveE9kZCI+PC9yZWN0Pjx0ZXh0IHRyYW5zZm9ybT0idHJhbnNsYXRlKDEzNi44NjgxNjMxMDg4MjU2OCwxNjYuNjAwMDAwMzgxNDY5NzMpIiBzdHlsZT0iZG9taW5hbnQtYmFzZWxpbmU6IG1pZGRsZTsgZm9udC1zaXplOiAxMC4ycHg7IiB5PSIwIiB4PSIwIiBpZD0idGV4dC1lbnRpdHktUFJPRFVDVFMtMzYyYzQ0MmEtNDYzYi01OTJhLWFhMGQtODZiYzViMjFjMmY0LWF0dHItNy1jb21tZW50IiBjbGFzcz0iZXIgZW50aXR5TGFiZWwiPjwvdGV4dD48cmVjdCBoZWlnaHQ9IjIyIiB3aWR0aD0iNDYuMjMwNDY4NzUiIHk9IjE3Ny42MDAwMDAzODE0Njk3MyIgeD0iMCIgY2xhc3M9ImVyIGF0dHJpYnV0ZUJveEV2ZW4iPjwvcmVjdD48dGV4dCB0cmFuc2Zvcm09InRyYW5zbGF0ZSg1LDE4OC42MDAwMDAzODE0Njk3MykiIHN0eWxlPSJkb21pbmFudC1iYXNlbGluZTogbWlkZGxlOyBmb250LXNpemU6IDEwLjJweDsiIHk9IjAiIHg9IjAiIGlkPSJ0ZXh0LWVudGl0eS1QUk9EVUNUUy0zNjJjNDQyYS00NjNiLTU5MmEtYWEwZC04NmJjNWIyMWMyZjQtYXR0ci04LXR5cGUiIGNsYXNzPSJlciBlbnRpdHlMYWJlbCI+aW50PC90ZXh0PjxyZWN0IGhlaWdodD0iMjIiIHdpZHRoPSI2My41NDk5OTkyMzcwNjA1NSIgeT0iMTc3LjYwMDAwMDM4MTQ2OTczIiB4PSI0Ni4yMzA0Njg3NSIgY2xhc3M9ImVyIGF0dHJpYnV0ZUJveEV2ZW4iPjwvcmVjdD48dGV4dCB0cmFuc2Zvcm09InRyYW5zbGF0ZSg1MS4yMzA0Njg3NSwxODguNjAwMDAwMzgxNDY5NzMpIiBzdHlsZT0iZG9taW5hbnQtYmFzZWxpbmU6IG1pZGRsZTsgZm9udC1zaXplOiAxMC4ycHg7IiB5PSIwIiB4PSIwIiBpZD0idGV4dC1lbnRpdHktUFJPRFVDVFMtMzYyYzQ0MmEtNDYzYi01OTJhLWFhMGQtODZiYzViMjFjMmY0LWF0dHItOC1uYW1lIiBjbGFzcz0iZXIgZW50aXR5TGFiZWwiPnN1cHBsaWVyX2lkPC90ZXh0PjxyZWN0IGhlaWdodD0iMjIiIHdpZHRoPSIyMi4wODc2OTUxMjE3NjUxMzciIHk9IjE3Ny42MDAwMDAzODE0Njk3MyIgeD0iMTA5Ljc4MDQ2Nzk4NzA2MDU1IiBjbGFzcz0iZXIgYXR0cmlidXRlQm94RXZlbiI+PC9yZWN0Pjx0ZXh0IHRyYW5zZm9ybT0idHJhbnNsYXRlKDExNC43ODA0Njc5ODcwNjA1NSwxODguNjAwMDAwMzgxNDY5NzMpIiBzdHlsZT0iZG9taW5hbnQtYmFzZWxpbmU6IG1pZGRsZTsgZm9udC1zaXplOiAxMC4ycHg7IiB5PSIwIiB4PSIwIiBpZD0idGV4dC1lbnRpdHktUFJPRFVDVFMtMzYyYzQ0MmEtNDYzYi01OTJhLWFhMGQtODZiYzViMjFjMmY0LWF0dHItOC1rZXkiIGNsYXNzPSJlciBlbnRpdHlMYWJlbCI+Rks8L3RleHQ+PHJlY3QgaGVpZ2h0PSIyMiIgd2lkdGg9IjQ1LjA2OTQzNTExOTYyODkwNiIgeT0iMTc3LjYwMDAwMDM4MTQ2OTczIiB4PSIxMzEuODY4MTYzMTA4ODI1NjgiIGNsYXNzPSJlciBhdHRyaWJ1dGVCb3hFdmVuIj48L3JlY3Q+PHRleHQgdHJhbnNmb3JtPSJ0cmFuc2xhdGUoMTM2Ljg2ODE2MzEwODgyNTY4LDE4OC42MDAwMDAzODE0Njk3MykiIHN0eWxlPSJkb21pbmFudC1iYXNlbGluZTogbWlkZGxlOyBmb250LXNpemU6IDEwLjJweDsiIHk9IjAiIHg9IjAiIGlkPSJ0ZXh0LWVudGl0eS1QUk9EVUNUUy0zNjJjNDQyYS00NjNiLTU5MmEtYWEwZC04NmJjNWIyMWMyZjQtYXR0ci04LWNvbW1lbnQiIGNsYXNzPSJlciBlbnRpdHlMYWJlbCI+TlVMTDwvdGV4dD48L2c+PGcgdHJhbnNmb3JtPSJ0cmFuc2xhdGUoMzU5LjYzOTA2Mjg4MTQ2OTcsNTQyLjIwMDAwNDU3NzYzNjcgKSIgaWQ9ImVudGl0eS1JTUFHRVMtYzllNTMzY2EtYTE2NC01N2JiLWE1OTItZjQxMjc1MWFlNzRlIj48cmVjdCBoZWlnaHQ9Ijg5LjYwMDAwMDM4MTQ2OTczIiB3aWR0aD0iMTI3LjQwMTM3MDA0ODUyMjk1IiB5PSIwIiB4PSIwIiBjbGFzcz0iZXIgZW50aXR5Qm94Ij48L3JlY3Q+PHRleHQgdHJhbnNmb3JtPSJ0cmFuc2xhdGUoNjMuNzAwNjg1MDI0MjYxNDc1LDExLjgwMDAwMDE5MDczNDg2MykiIHN0eWxlPSJkb21pbmFudC1iYXNlbGluZTogbWlkZGxlOyB0ZXh0LWFuY2hvcjogbWlkZGxlOyBmb250LXNpemU6IDEycHg7IiB5PSIwIiB4PSIwIiBpZD0idGV4dC1lbnRpdHktSU1BR0VTLWM5ZTUzM2NhLWExNjQtNTdiYi1hNTkyLWY0MTI3NTFhZTc0ZSIgY2xhc3M9ImVyIGVudGl0eUxhYmVsIj5JTUFHRVM8L3RleHQ+PHJlY3QgaGVpZ2h0PSIyMiIgd2lkdGg9IjQ1LjkwMTE3MjYzNzkzOTQ1IiB5PSIyMy42MDAwMDAzODE0Njk3MjciIHg9IjAiIGNsYXNzPSJlciBhdHRyaWJ1dGVCb3hPZGQiPjwvcmVjdD48dGV4dCB0cmFuc2Zvcm09InRyYW5zbGF0ZSg1LDM0LjYwMDAwMDM4MTQ2OTczKSIgc3R5bGU9ImRvbWluYW50LWJhc2VsaW5lOiBtaWRkbGU7IGZvbnQtc2l6ZTogMTAuMnB4OyIgeT0iMCIgeD0iMCIgaWQ9InRleHQtZW50aXR5LUlNQUdFUy1jOWU1MzNjYS1hMTY0LTU3YmItYTU5Mi1mNDEyNzUxYWU3NGUtYXR0ci0xLXR5cGUiIGNsYXNzPSJlciBlbnRpdHlMYWJlbCI+aW50PC90ZXh0PjxyZWN0IGhlaWdodD0iMjIiIHdpZHRoPSI1OS40MTI1MDIyODg4MTgzNiIgeT0iMjMuNjAwMDAwMzgxNDY5NzI3IiB4PSI0NS45MDExNzI2Mzc5Mzk0NSIgY2xhc3M9ImVyIGF0dHJpYnV0ZUJveE9kZCI+PC9yZWN0Pjx0ZXh0IHRyYW5zZm9ybT0idHJhbnNsYXRlKDUwLjkwMTE3MjYzNzkzOTQ1LDM0LjYwMDAwMDM4MTQ2OTczKSIgc3R5bGU9ImRvbWluYW50LWJhc2VsaW5lOiBtaWRkbGU7IGZvbnQtc2l6ZTogMTAuMnB4OyIgeT0iMCIgeD0iMCIgaWQ9InRleHQtZW50aXR5LUlNQUdFUy1jOWU1MzNjYS1hMTY0LTU3YmItYTU5Mi1mNDEyNzUxYWU3NGUtYXR0ci0xLW5hbWUiIGNsYXNzPSJlciBlbnRpdHlMYWJlbCI+aWQ8L3RleHQ+PHJlY3QgaGVpZ2h0PSIyMiIgd2lkdGg9IjIyLjA4NzY5NTEyMTc2NTEzNyIgeT0iMjMuNjAwMDAwMzgxNDY5NzI3IiB4PSIxMDUuMzEzNjc0OTI2NzU3ODEiIGNsYXNzPSJlciBhdHRyaWJ1dGVCb3hPZGQiPjwvcmVjdD48dGV4dCB0cmFuc2Zvcm09InRyYW5zbGF0ZSgxMTAuMzEzNjc0OTI2NzU3ODEsMzQuNjAwMDAwMzgxNDY5NzMpIiBzdHlsZT0iZG9taW5hbnQtYmFzZWxpbmU6IG1pZGRsZTsgZm9udC1zaXplOiAxMC4ycHg7IiB5PSIwIiB4PSIwIiBpZD0idGV4dC1lbnRpdHktSU1BR0VTLWM5ZTUzM2NhLWExNjQtNTdiYi1hNTkyLWY0MTI3NTFhZTc0ZS1hdHRyLTEta2V5IiBjbGFzcz0iZXIgZW50aXR5TGFiZWwiPlBLPC90ZXh0PjxyZWN0IGhlaWdodD0iMjIiIHdpZHRoPSI0NS45MDExNzI2Mzc5Mzk0NSIgeT0iNDUuNjAwMDAwMzgxNDY5NzMiIHg9IjAiIGNsYXNzPSJlciBhdHRyaWJ1dGVCb3hFdmVuIj48L3JlY3Q+PHRleHQgdHJhbnNmb3JtPSJ0cmFuc2xhdGUoNSw1Ni42MDAwMDAzODE0Njk3MykiIHN0eWxlPSJkb21pbmFudC1iYXNlbGluZTogbWlkZGxlOyBmb250LXNpemU6IDEwLjJweDsiIHk9IjAiIHg9IjAiIGlkPSJ0ZXh0LWVudGl0eS1JTUFHRVMtYzllNTMzY2EtYTE2NC01N2JiLWE1OTItZjQxMjc1MWFlNzRlLWF0dHItMi10eXBlIiBjbGFzcz0iZXIgZW50aXR5TGFiZWwiPmludDwvdGV4dD48cmVjdCBoZWlnaHQ9IjIyIiB3aWR0aD0iNTkuNDEyNTAyMjg4ODE4MzYiIHk9IjQ1LjYwMDAwMDM4MTQ2OTczIiB4PSI0NS45MDExNzI2Mzc5Mzk0NSIgY2xhc3M9ImVyIGF0dHJpYnV0ZUJveEV2ZW4iPjwvcmVjdD48dGV4dCB0cmFuc2Zvcm09InRyYW5zbGF0ZSg1MC45MDExNzI2Mzc5Mzk0NSw1Ni42MDAwMDAzODE0Njk3MykiIHN0eWxlPSJkb21pbmFudC1iYXNlbGluZTogbWlkZGxlOyBmb250LXNpemU6IDEwLjJweDsiIHk9IjAiIHg9IjAiIGlkPSJ0ZXh0LWVudGl0eS1JTUFHRVMtYzllNTMzY2EtYTE2NC01N2JiLWE1OTItZjQxMjc1MWFlNzRlLWF0dHItMi1uYW1lIiBjbGFzcz0iZXIgZW50aXR5TGFiZWwiPnByb2R1Y3RfaWQ8L3RleHQ+PHJlY3QgaGVpZ2h0PSIyMiIgd2lkdGg9IjIyLjA4NzY5NTEyMTc2NTEzNyIgeT0iNDUuNjAwMDAwMzgxNDY5NzMiIHg9IjEwNS4zMTM2NzQ5MjY3NTc4MSIgY2xhc3M9ImVyIGF0dHJpYnV0ZUJveEV2ZW4iPjwvcmVjdD48dGV4dCB0cmFuc2Zvcm09InRyYW5zbGF0ZSgxMTAuMzEzNjc0OTI2NzU3ODEsNTYuNjAwMDAwMzgxNDY5NzMpIiBzdHlsZT0iZG9taW5hbnQtYmFzZWxpbmU6IG1pZGRsZTsgZm9udC1zaXplOiAxMC4ycHg7IiB5PSIwIiB4PSIwIiBpZD0idGV4dC1lbnRpdHktSU1BR0VTLWM5ZTUzM2NhLWExNjQtNTdiYi1hNTkyLWY0MTI3NTFhZTc0ZS1hdHRyLTIta2V5IiBjbGFzcz0iZXIgZW50aXR5TGFiZWwiPkZLPC90ZXh0PjxyZWN0IGhlaWdodD0iMjIiIHdpZHRoPSI0NS45MDExNzI2Mzc5Mzk0NSIgeT0iNjcuNjAwMDAwMzgxNDY5NzMiIHg9IjAiIGNsYXNzPSJlciBhdHRyaWJ1dGVCb3hPZGQiPjwvcmVjdD48dGV4dCB0cmFuc2Zvcm09InRyYW5zbGF0ZSg1LDc4LjYwMDAwMDM4MTQ2OTczKSIgc3R5bGU9ImRvbWluYW50LWJhc2VsaW5lOiBtaWRkbGU7IGZvbnQtc2l6ZTogMTAuMnB4OyIgeT0iMCIgeD0iMCIgaWQ9InRleHQtZW50aXR5LUlNQUdFUy1jOWU1MzNjYS1hMTY0LTU3YmItYTU5Mi1mNDEyNzUxYWU3NGUtYXR0ci0zLXR5cGUiIGNsYXNzPSJlciBlbnRpdHlMYWJlbCI+dmFyY2hhcjwvdGV4dD48cmVjdCBoZWlnaHQ9IjIyIiB3aWR0aD0iNTkuNDEyNTAyMjg4ODE4MzYiIHk9IjY3LjYwMDAwMDM4MTQ2OTczIiB4PSI0NS45MDExNzI2Mzc5Mzk0NSIgY2xhc3M9ImVyIGF0dHJpYnV0ZUJveE9kZCI+PC9yZWN0Pjx0ZXh0IHRyYW5zZm9ybT0idHJhbnNsYXRlKDUwLjkwMTE3MjYzNzkzOTQ1LDc4LjYwMDAwMDM4MTQ2OTczKSIgc3R5bGU9ImRvbWluYW50LWJhc2VsaW5lOiBtaWRkbGU7IGZvbnQtc2l6ZTogMTAuMnB4OyIgeT0iMCIgeD0iMCIgaWQ9InRleHQtZW50aXR5LUlNQUdFUy1jOWU1MzNjYS1hMTY0LTU3YmItYTU5Mi1mNDEyNzUxYWU3NGUtYXR0ci0zLW5hbWUiIGNsYXNzPSJlciBlbnRpdHlMYWJlbCI+bmFtZTwvdGV4dD48cmVjdCBoZWlnaHQ9IjIyIiB3aWR0aD0iMjIuMDg3Njk1MTIxNzY1MTM3IiB5PSI2Ny42MDAwMDAzODE0Njk3MyIgeD0iMTA1LjMxMzY3NDkyNjc1NzgxIiBjbGFzcz0iZXIgYXR0cmlidXRlQm94T2RkIj48L3JlY3Q+PHRleHQgdHJhbnNmb3JtPSJ0cmFuc2xhdGUoMTEwLjMxMzY3NDkyNjc1NzgxLDc4LjYwMDAwMDM4MTQ2OTczKSIgc3R5bGU9ImRvbWluYW50LWJhc2VsaW5lOiBtaWRkbGU7IGZvbnQtc2l6ZTogMTAuMnB4OyIgeT0iMCIgeD0iMCIgaWQ9InRleHQtZW50aXR5LUlNQUdFUy1jOWU1MzNjYS1hMTY0LTU3YmItYTU5Mi1mNDEyNzUxYWU3NGUtYXR0ci0zLWtleSIgY2xhc3M9ImVyIGVudGl0eUxhYmVsIj48L3RleHQ+PC9nPjxnIHRyYW5zZm9ybT0idHJhbnNsYXRlKDU4Ny4wNDA0MzAwNjg5Njk3LDU0Mi4yMDAwMDQ1Nzc2MzY3ICkiIGlkPSJlbnRpdHktU1VQUExJRVJTLTcxZjk1NzY2LTRkODQtNWM0OC1hZDIyLTdiZjRjNGNmMWJiMyI+PHJlY3QgaGVpZ2h0PSI4OS42MDAwMDAzODE0Njk3MyIgd2lkdGg9IjIwMy43MTg5NDc0MTA1ODM1IiB5PSIwIiB4PSIwIiBjbGFzcz0iZXIgZW50aXR5Qm94Ij48L3JlY3Q+PHRleHQgdHJhbnNmb3JtPSJ0cmFuc2xhdGUoMTAxLjg1OTQ3MzcwNTI5MTc1LDExLjgwMDAwMDE5MDczNDg2MykiIHN0eWxlPSJkb21pbmFudC1iYXNlbGluZTogbWlkZGxlOyB0ZXh0LWFuY2hvcjogbWlkZGxlOyBmb250LXNpemU6IDEycHg7IiB5PSIwIiB4PSIwIiBpZD0idGV4dC1lbnRpdHktU1VQUExJRVJTLTcxZjk1NzY2LTRkODQtNWM0OC1hZDIyLTdiZjRjNGNmMWJiMyIgY2xhc3M9ImVyIGVudGl0eUxhYmVsIj5TVVBQTElFUlM8L3RleHQ+PHJlY3QgaGVpZ2h0PSIyMiIgd2lkdGg9IjQ1LjkwMTE3MjYzNzkzOTQ1IiB5PSIyMy42MDAwMDAzODE0Njk3MjciIHg9IjAiIGNsYXNzPSJlciBhdHRyaWJ1dGVCb3hPZGQiPjwvcmVjdD48dGV4dCB0cmFuc2Zvcm09InRyYW5zbGF0ZSg1LDM0LjYwMDAwMDM4MTQ2OTczKSIgc3R5bGU9ImRvbWluYW50LWJhc2VsaW5lOiBtaWRkbGU7IGZvbnQtc2l6ZTogMTAuMnB4OyIgeT0iMCIgeD0iMCIgaWQ9InRleHQtZW50aXR5LVNVUFBMSUVSUy03MWY5NTc2Ni00ZDg0LTVjNDgtYWQyMi03YmY0YzRjZjFiYjMtYXR0ci0xLXR5cGUiIGNsYXNzPSJlciBlbnRpdHlMYWJlbCI+aW50PC90ZXh0PjxyZWN0IGhlaWdodD0iMjIiIHdpZHRoPSI2Ny43OTUzMTQ3ODg4MTgzNiIgeT0iMjMuNjAwMDAwMzgxNDY5NzI3IiB4PSI0NS45MDExNzI2Mzc5Mzk0NSIgY2xhc3M9ImVyIGF0dHJpYnV0ZUJveE9kZCI+PC9yZWN0Pjx0ZXh0IHRyYW5zZm9ybT0idHJhbnNsYXRlKDUwLjkwMTE3MjYzNzkzOTQ1LDM0LjYwMDAwMDM4MTQ2OTczKSIgc3R5bGU9ImRvbWluYW50LWJhc2VsaW5lOiBtaWRkbGU7IGZvbnQtc2l6ZTogMTAuMnB4OyIgeT0iMCIgeD0iMCIgaWQ9InRleHQtZW50aXR5LVNVUFBMSUVSUy03MWY5NTc2Ni00ZDg0LTVjNDgtYWQyMi03YmY0YzRjZjFiYjMtYXR0ci0xLW5hbWUiIGNsYXNzPSJlciBlbnRpdHlMYWJlbCI+aWQ8L3RleHQ+PHJlY3QgaGVpZ2h0PSIyMiIgd2lkdGg9IjIyLjA4NzY5NTEyMTc2NTEzNyIgeT0iMjMuNjAwMDAwMzgxNDY5NzI3IiB4PSIxMTMuNjk2NDg3NDI2NzU3ODEiIGNsYXNzPSJlciBhdHRyaWJ1dGVCb3hPZGQiPjwvcmVjdD48dGV4dCB0cmFuc2Zvcm09InRyYW5zbGF0ZSgxMTguNjk2NDg3NDI2NzU3ODEsMzQuNjAwMDAwMzgxNDY5NzMpIiBzdHlsZT0iZG9taW5hbnQtYmFzZWxpbmU6IG1pZGRsZTsgZm9udC1zaXplOiAxMC4ycHg7IiB5PSIwIiB4PSIwIiBpZD0idGV4dC1lbnRpdHktU1VQUExJRVJTLTcxZjk1NzY2LTRkODQtNWM0OC1hZDIyLTdiZjRjNGNmMWJiMy1hdHRyLTEta2V5IiBjbGFzcz0iZXIgZW50aXR5TGFiZWwiPlBLPC90ZXh0PjxyZWN0IGhlaWdodD0iMjIiIHdpZHRoPSI2Ny45MzQ3NjQ4NjIwNjA1NSIgeT0iMjMuNjAwMDAwMzgxNDY5NzI3IiB4PSIxMzUuNzg0MTgyNTQ4NTIyOTUiIGNsYXNzPSJlciBhdHRyaWJ1dGVCb3hPZGQiPjwvcmVjdD48dGV4dCB0cmFuc2Zvcm09InRyYW5zbGF0ZSgxNDAuNzg0MTgyNTQ4NTIyOTUsMzQuNjAwMDAwMzgxNDY5NzMpIiBzdHlsZT0iZG9taW5hbnQtYmFzZWxpbmU6IG1pZGRsZTsgZm9udC1zaXplOiAxMC4ycHg7IiB5PSIwIiB4PSIwIiBpZD0idGV4dC1lbnRpdHktU1VQUExJRVJTLTcxZjk1NzY2LTRkODQtNWM0OC1hZDIyLTdiZjRjNGNmMWJiMy1hdHRyLTEtY29tbWVudCIgY2xhc3M9ImVyIGVudGl0eUxhYmVsIj48L3RleHQ+PHJlY3QgaGVpZ2h0PSIyMiIgd2lkdGg9IjQ1LjkwMTE3MjYzNzkzOTQ1IiB5PSI0NS42MDAwMDAzODE0Njk3MyIgeD0iMCIgY2xhc3M9ImVyIGF0dHJpYnV0ZUJveEV2ZW4iPjwvcmVjdD48dGV4dCB0cmFuc2Zvcm09InRyYW5zbGF0ZSg1LDU2LjYwMDAwMDM4MTQ2OTczKSIgc3R5bGU9ImRvbWluYW50LWJhc2VsaW5lOiBtaWRkbGU7IGZvbnQtc2l6ZTogMTAuMnB4OyIgeT0iMCIgeD0iMCIgaWQ9InRleHQtZW50aXR5LVNVUFBMSUVSUy03MWY5NTc2Ni00ZDg0LTVjNDgtYWQyMi03YmY0YzRjZjFiYjMtYXR0ci0yLXR5cGUiIGNsYXNzPSJlciBlbnRpdHlMYWJlbCI+dmFyY2hhcjwvdGV4dD48cmVjdCBoZWlnaHQ9IjIyIiB3aWR0aD0iNjcuNzk1MzE0Nzg4ODE4MzYiIHk9IjQ1LjYwMDAwMDM4MTQ2OTczIiB4PSI0NS45MDExNzI2Mzc5Mzk0NSIgY2xhc3M9ImVyIGF0dHJpYnV0ZUJveEV2ZW4iPjwvcmVjdD48dGV4dCB0cmFuc2Zvcm09InRyYW5zbGF0ZSg1MC45MDExNzI2Mzc5Mzk0NSw1Ni42MDAwMDAzODE0Njk3MykiIHN0eWxlPSJkb21pbmFudC1iYXNlbGluZTogbWlkZGxlOyBmb250LXNpemU6IDEwLjJweDsiIHk9IjAiIHg9IjAiIGlkPSJ0ZXh0LWVudGl0eS1TVVBQTElFUlMtNzFmOTU3NjYtNGQ4NC01YzQ4LWFkMjItN2JmNGM0Y2YxYmIzLWF0dHItMi1uYW1lIiBjbGFzcz0iZXIgZW50aXR5TGFiZWwiPm5hbWU8L3RleHQ+PHJlY3QgaGVpZ2h0PSIyMiIgd2lkdGg9IjIyLjA4NzY5NTEyMTc2NTEzNyIgeT0iNDUuNjAwMDAwMzgxNDY5NzMiIHg9IjExMy42OTY0ODc0MjY3NTc4MSIgY2xhc3M9ImVyIGF0dHJpYnV0ZUJveEV2ZW4iPjwvcmVjdD48dGV4dCB0cmFuc2Zvcm09InRyYW5zbGF0ZSgxMTguNjk2NDg3NDI2NzU3ODEsNTYuNjAwMDAwMzgxNDY5NzMpIiBzdHlsZT0iZG9taW5hbnQtYmFzZWxpbmU6IG1pZGRsZTsgZm9udC1zaXplOiAxMC4ycHg7IiB5PSIwIiB4PSIwIiBpZD0idGV4dC1lbnRpdHktU1VQUExJRVJTLTcxZjk1NzY2LTRkODQtNWM0OC1hZDIyLTdiZjRjNGNmMWJiMy1hdHRyLTIta2V5IiBjbGFzcz0iZXIgZW50aXR5TGFiZWwiPjwvdGV4dD48cmVjdCBoZWlnaHQ9IjIyIiB3aWR0aD0iNjcuOTM0NzY0ODYyMDYwNTUiIHk9IjQ1LjYwMDAwMDM4MTQ2OTczIiB4PSIxMzUuNzg0MTgyNTQ4NTIyOTUiIGNsYXNzPSJlciBhdHRyaWJ1dGVCb3hFdmVuIj48L3JlY3Q+PHRleHQgdHJhbnNmb3JtPSJ0cmFuc2xhdGUoMTQwLjc4NDE4MjU0ODUyMjk1LDU2LjYwMDAwMDM4MTQ2OTczKSIgc3R5bGU9ImRvbWluYW50LWJhc2VsaW5lOiBtaWRkbGU7IGZvbnQtc2l6ZTogMTAuMnB4OyIgeT0iMCIgeD0iMCIgaWQ9InRleHQtZW50aXR5LVNVUFBMSUVSUy03MWY5NTc2Ni00ZDg0LTVjNDgtYWQyMi03YmY0YzRjZjFiYjMtYXR0ci0yLWNvbW1lbnQiIGNsYXNzPSJlciBlbnRpdHlMYWJlbCI+MTAwLCBVTklRVUU8L3RleHQ+PHJlY3QgaGVpZ2h0PSIyMiIgd2lkdGg9IjQ1LjkwMTE3MjYzNzkzOTQ1IiB5PSI2Ny42MDAwMDAzODE0Njk3MyIgeD0iMCIgY2xhc3M9ImVyIGF0dHJpYnV0ZUJveE9kZCI+PC9yZWN0Pjx0ZXh0IHRyYW5zZm9ybT0idHJhbnNsYXRlKDUsNzguNjAwMDAwMzgxNDY5NzMpIiBzdHlsZT0iZG9taW5hbnQtYmFzZWxpbmU6IG1pZGRsZTsgZm9udC1zaXplOiAxMC4ycHg7IiB5PSIwIiB4PSIwIiBpZD0idGV4dC1lbnRpdHktU1VQUExJRVJTLTcxZjk1NzY2LTRkODQtNWM0OC1hZDIyLTdiZjRjNGNmMWJiMy1hdHRyLTMtdHlwZSIgY2xhc3M9ImVyIGVudGl0eUxhYmVsIj5qc29uPC90ZXh0PjxyZWN0IGhlaWdodD0iMjIiIHdpZHRoPSI2Ny43OTUzMTQ3ODg4MTgzNiIgeT0iNjcuNjAwMDAwMzgxNDY5NzMiIHg9IjQ1LjkwMTE3MjYzNzkzOTQ1IiBjbGFzcz0iZXIgYXR0cmlidXRlQm94T2RkIj48L3JlY3Q+PHRleHQgdHJhbnNmb3JtPSJ0cmFuc2xhdGUoNTAuOTAxMTcyNjM3OTM5NDUsNzguNjAwMDAwMzgxNDY5NzMpIiBzdHlsZT0iZG9taW5hbnQtYmFzZWxpbmU6IG1pZGRsZTsgZm9udC1zaXplOiAxMC4ycHg7IiB5PSIwIiB4PSIwIiBpZD0idGV4dC1lbnRpdHktU1VQUExJRVJTLTcxZjk1NzY2LTRkODQtNWM0OC1hZDIyLTdiZjRjNGNmMWJiMy1hdHRyLTMtbmFtZSIgY2xhc3M9ImVyIGVudGl0eUxhYmVsIj5jb250YWN0X2luZm88L3RleHQ+PHJlY3QgaGVpZ2h0PSIyMiIgd2lkdGg9IjIyLjA4NzY5NTEyMTc2NTEzNyIgeT0iNjcuNjAwMDAwMzgxNDY5NzMiIHg9IjExMy42OTY0ODc0MjY3NTc4MSIgY2xhc3M9ImVyIGF0dHJpYnV0ZUJveE9kZCI+PC9yZWN0Pjx0ZXh0IHRyYW5zZm9ybT0idHJhbnNsYXRlKDExOC42OTY0ODc0MjY3NTc4MSw3OC42MDAwMDAzODE0Njk3MykiIHN0eWxlPSJkb21pbmFudC1iYXNlbGluZTogbWlkZGxlOyBmb250LXNpemU6IDEwLjJweDsiIHk9IjAiIHg9IjAiIGlkPSJ0ZXh0LWVudGl0eS1TVVBQTElFUlMtNzFmOTU3NjYtNGQ4NC01YzQ4LWFkMjItN2JmNGM0Y2YxYmIzLWF0dHItMy1rZXkiIGNsYXNzPSJlciBlbnRpdHlMYWJlbCI+PC90ZXh0PjxyZWN0IGhlaWdodD0iMjIiIHdpZHRoPSI2Ny45MzQ3NjQ4NjIwNjA1NSIgeT0iNjcuNjAwMDAwMzgxNDY5NzMiIHg9IjEzNS43ODQxODI1NDg1MjI5NSIgY2xhc3M9ImVyIGF0dHJpYnV0ZUJveE9kZCI+PC9yZWN0Pjx0ZXh0IHRyYW5zZm9ybT0idHJhbnNsYXRlKDE0MC43ODQxODI1NDg1MjI5NSw3OC42MDAwMDAzODE0Njk3MykiIHN0eWxlPSJkb21pbmFudC1iYXNlbGluZTogbWlkZGxlOyBmb250LXNpemU6IDEwLjJweDsiIHk9IjAiIHg9IjAiIGlkPSJ0ZXh0LWVudGl0eS1TVVBQTElFUlMtNzFmOTU3NjYtNGQ4NC01YzQ4LWFkMjItN2JmNGM0Y2YxYmIzLWF0dHItMy1jb21tZW50IiBjbGFzcz0iZXIgZW50aXR5TGFiZWwiPjwvdGV4dD48L2c+PGcgdHJhbnNmb3JtPSJ0cmFuc2xhdGUoMjAsMjg2LjYwMDAwMjI4ODgxODM2ICkiIGlkPSJlbnRpdHktU0FMRVMtMjJhMTgxNmUtNDI5MC01MWY3LTg5ZDQtNDU4YTIwM2MwMzNjIj48cmVjdCBoZWlnaHQ9Ijg5LjYwMDAwMDM4MTQ2OTczIiB3aWR0aD0iMTk2Ljg0ODMzODEyNzEzNjIzIiB5PSIwIiB4PSIwIiBjbGFzcz0iZXIgZW50aXR5Qm94Ij48L3JlY3Q+PHRleHQgdHJhbnNmb3JtPSJ0cmFuc2xhdGUoOTguNDI0MTY5MDYzNTY4MTIsMTEuODAwMDAwMTkwNzM0ODYzKSIgc3R5bGU9ImRvbWluYW50LWJhc2VsaW5lOiBtaWRkbGU7IHRleHQtYW5jaG9yOiBtaWRkbGU7IGZvbnQtc2l6ZTogMTJweDsiIHk9IjAiIHg9IjAiIGlkPSJ0ZXh0LWVudGl0eS1TQUxFUy0yMmExODE2ZS00MjkwLTUxZjctODlkNC00NThhMjAzYzAzM2MiIGNsYXNzPSJlciBlbnRpdHlMYWJlbCI+U0FMRVM8L3RleHQ+PHJlY3QgaGVpZ2h0PSIyMiIgd2lkdGg9IjQ2LjIzMDQ2ODc1IiB5PSIyMy42MDAwMDAzODE0Njk3MjciIHg9IjAiIGNsYXNzPSJlciBhdHRyaWJ1dGVCb3hPZGQiPjwvcmVjdD48dGV4dCB0cmFuc2Zvcm09InRyYW5zbGF0ZSg1LDM0LjYwMDAwMDM4MTQ2OTczKSIgc3R5bGU9ImRvbWluYW50LWJhc2VsaW5lOiBtaWRkbGU7IGZvbnQtc2l6ZTogMTAuMnB4OyIgeT0iMCIgeD0iMCIgaWQ9InRleHQtZW50aXR5LVNBTEVTLTIyYTE4MTZlLTQyOTAtNTFmNy04OWQ0LTQ1OGEyMDNjMDMzYy1hdHRyLTEtdHlwZSIgY2xhc3M9ImVyIGVudGl0eUxhYmVsIj5pbnQ8L3RleHQ+PHJlY3QgaGVpZ2h0PSIyMiIgd2lkdGg9IjcyLjUyMzYzMjA0OTU2MDU1IiB5PSIyMy42MDAwMDAzODE0Njk3MjciIHg9IjQ2LjIzMDQ2ODc1IiBjbGFzcz0iZXIgYXR0cmlidXRlQm94T2RkIj48L3JlY3Q+PHRleHQgdHJhbnNmb3JtPSJ0cmFuc2xhdGUoNTEuMjMwNDY4NzUsMzQuNjAwMDAwMzgxNDY5NzMpIiBzdHlsZT0iZG9taW5hbnQtYmFzZWxpbmU6IG1pZGRsZTsgZm9udC1zaXplOiAxMC4ycHg7IiB5PSIwIiB4PSIwIiBpZD0idGV4dC1lbnRpdHktU0FMRVMtMjJhMTgxNmUtNDI5MC01MWY3LTg5ZDQtNDU4YTIwM2MwMzNjLWF0dHItMS1uYW1lIiBjbGFzcz0iZXIgZW50aXR5TGFiZWwiPmlkPC90ZXh0PjxyZWN0IGhlaWdodD0iMjIiIHdpZHRoPSIyMi4wODc2OTUxMjE3NjUxMzciIHk9IjIzLjYwMDAwMDM4MTQ2OTcyNyIgeD0iMTE4Ljc1NDEwMDc5OTU2MDU1IiBjbGFzcz0iZXIgYXR0cmlidXRlQm94T2RkIj48L3JlY3Q+PHRleHQgdHJhbnNmb3JtPSJ0cmFuc2xhdGUoMTIzLjc1NDEwMDc5OTU2MDU1LDM0LjYwMDAwMDM4MTQ2OTczKSIgc3R5bGU9ImRvbWluYW50LWJhc2VsaW5lOiBtaWRkbGU7IGZvbnQtc2l6ZTogMTAuMnB4OyIgeT0iMCIgeD0iMCIgaWQ9InRleHQtZW50aXR5LVNBTEVTLTIyYTE4MTZlLTQyOTAtNTFmNy04OWQ0LTQ1OGEyMDNjMDMzYy1hdHRyLTEta2V5IiBjbGFzcz0iZXIgZW50aXR5TGFiZWwiPlBLPC90ZXh0PjxyZWN0IGhlaWdodD0iMjIiIHdpZHRoPSI1Ni4wMDY1NDIyMDU4MTA1NSIgeT0iMjMuNjAwMDAwMzgxNDY5NzI3IiB4PSIxNDAuODQxNzk1OTIxMzI1NjgiIGNsYXNzPSJlciBhdHRyaWJ1dGVCb3hPZGQiPjwvcmVjdD48dGV4dCB0cmFuc2Zvcm09InRyYW5zbGF0ZSgxNDUuODQxNzk1OTIxMzI1NjgsMzQuNjAwMDAwMzgxNDY5NzMpIiBzdHlsZT0iZG9taW5hbnQtYmFzZWxpbmU6IG1pZGRsZTsgZm9udC1zaXplOiAxMC4ycHg7IiB5PSIwIiB4PSIwIiBpZD0idGV4dC1lbnRpdHktU0FMRVMtMjJhMTgxNmUtNDI5MC01MWY3LTg5ZDQtNDU4YTIwM2MwMzNjLWF0dHItMS1jb21tZW50IiBjbGFzcz0iZXIgZW50aXR5TGFiZWwiPjwvdGV4dD48cmVjdCBoZWlnaHQ9IjIyIiB3aWR0aD0iNDYuMjMwNDY4NzUiIHk9IjQ1LjYwMDAwMDM4MTQ2OTczIiB4PSIwIiBjbGFzcz0iZXIgYXR0cmlidXRlQm94RXZlbiI+PC9yZWN0Pjx0ZXh0IHRyYW5zZm9ybT0idHJhbnNsYXRlKDUsNTYuNjAwMDAwMzgxNDY5NzMpIiBzdHlsZT0iZG9taW5hbnQtYmFzZWxpbmU6IG1pZGRsZTsgZm9udC1zaXplOiAxMC4ycHg7IiB5PSIwIiB4PSIwIiBpZD0idGV4dC1lbnRpdHktU0FMRVMtMjJhMTgxNmUtNDI5MC01MWY3LTg5ZDQtNDU4YTIwM2MwMzNjLWF0dHItMi10eXBlIiBjbGFzcz0iZXIgZW50aXR5TGFiZWwiPmludDwvdGV4dD48cmVjdCBoZWlnaHQ9IjIyIiB3aWR0aD0iNzIuNTIzNjMyMDQ5NTYwNTUiIHk9IjQ1LjYwMDAwMDM4MTQ2OTczIiB4PSI0Ni4yMzA0Njg3NSIgY2xhc3M9ImVyIGF0dHJpYnV0ZUJveEV2ZW4iPjwvcmVjdD48dGV4dCB0cmFuc2Zvcm09InRyYW5zbGF0ZSg1MS4yMzA0Njg3NSw1Ni42MDAwMDAzODE0Njk3MykiIHN0eWxlPSJkb21pbmFudC1iYXNlbGluZTogbWlkZGxlOyBmb250LXNpemU6IDEwLjJweDsiIHk9IjAiIHg9IjAiIGlkPSJ0ZXh0LWVudGl0eS1TQUxFUy0yMmExODE2ZS00MjkwLTUxZjctODlkNC00NThhMjAzYzAzM2MtYXR0ci0yLW5hbWUiIGNsYXNzPSJlciBlbnRpdHlMYWJlbCI+Y3VzdG9tZXJfaWQ8L3RleHQ+PHJlY3QgaGVpZ2h0PSIyMiIgd2lkdGg9IjIyLjA4NzY5NTEyMTc2NTEzNyIgeT0iNDUuNjAwMDAwMzgxNDY5NzMiIHg9IjExOC43NTQxMDA3OTk1NjA1NSIgY2xhc3M9ImVyIGF0dHJpYnV0ZUJveEV2ZW4iPjwvcmVjdD48dGV4dCB0cmFuc2Zvcm09InRyYW5zbGF0ZSgxMjMuNzU0MTAwNzk5NTYwNTUsNTYuNjAwMDAwMzgxNDY5NzMpIiBzdHlsZT0iZG9taW5hbnQtYmFzZWxpbmU6IG1pZGRsZTsgZm9udC1zaXplOiAxMC4ycHg7IiB5PSIwIiB4PSIwIiBpZD0idGV4dC1lbnRpdHktU0FMRVMtMjJhMTgxNmUtNDI5MC01MWY3LTg5ZDQtNDU4YTIwM2MwMzNjLWF0dHItMi1rZXkiIGNsYXNzPSJlciBlbnRpdHlMYWJlbCI+Rks8L3RleHQ+PHJlY3QgaGVpZ2h0PSIyMiIgd2lkdGg9IjU2LjAwNjU0MjIwNTgxMDU1IiB5PSI0NS42MDAwMDAzODE0Njk3MyIgeD0iMTQwLjg0MTc5NTkyMTMyNTY4IiBjbGFzcz0iZXIgYXR0cmlidXRlQm94RXZlbiI+PC9yZWN0Pjx0ZXh0IHRyYW5zZm9ybT0idHJhbnNsYXRlKDE0NS44NDE3OTU5MjEzMjU2OCw1Ni42MDAwMDAzODE0Njk3MykiIHN0eWxlPSJkb21pbmFudC1iYXNlbGluZTogbWlkZGxlOyBmb250LXNpemU6IDEwLjJweDsiIHk9IjAiIHg9IjAiIGlkPSJ0ZXh0LWVudGl0eS1TQUxFUy0yMmExODE2ZS00MjkwLTUxZjctODlkNC00NThhMjAzYzAzM2MtYXR0ci0yLWNvbW1lbnQiIGNsYXNzPSJlciBlbnRpdHlMYWJlbCI+TlVMTEFCTEU8L3RleHQ+PHJlY3QgaGVpZ2h0PSIyMiIgd2lkdGg9IjQ2LjIzMDQ2ODc1IiB5PSI2Ny42MDAwMDAzODE0Njk3MyIgeD0iMCIgY2xhc3M9ImVyIGF0dHJpYnV0ZUJveE9kZCI+PC9yZWN0Pjx0ZXh0IHRyYW5zZm9ybT0idHJhbnNsYXRlKDUsNzguNjAwMDAwMzgxNDY5NzMpIiBzdHlsZT0iZG9taW5hbnQtYmFzZWxpbmU6IG1pZGRsZTsgZm9udC1zaXplOiAxMC4ycHg7IiB5PSIwIiB4PSIwIiBpZD0idGV4dC1lbnRpdHktU0FMRVMtMjJhMTgxNmUtNDI5MC01MWY3LTg5ZDQtNDU4YTIwM2MwMzNjLWF0dHItMy10eXBlIiBjbGFzcz0iZXIgZW50aXR5TGFiZWwiPmRlY2ltYWw8L3RleHQ+PHJlY3QgaGVpZ2h0PSIyMiIgd2lkdGg9IjcyLjUyMzYzMjA0OTU2MDU1IiB5PSI2Ny42MDAwMDAzODE0Njk3MyIgeD0iNDYuMjMwNDY4NzUiIGNsYXNzPSJlciBhdHRyaWJ1dGVCb3hPZGQiPjwvcmVjdD48dGV4dCB0cmFuc2Zvcm09InRyYW5zbGF0ZSg1MS4yMzA0Njg3NSw3OC42MDAwMDAzODE0Njk3MykiIHN0eWxlPSJkb21pbmFudC1iYXNlbGluZTogbWlkZGxlOyBmb250LXNpemU6IDEwLjJweDsiIHk9IjAiIHg9IjAiIGlkPSJ0ZXh0LWVudGl0eS1TQUxFUy0yMmExODE2ZS00MjkwLTUxZjctODlkNC00NThhMjAzYzAzM2MtYXR0ci0zLW5hbWUiIGNsYXNzPSJlciBlbnRpdHlMYWJlbCI+dG90YWxfYW1vdW50PC90ZXh0PjxyZWN0IGhlaWdodD0iMjIiIHdpZHRoPSIyMi4wODc2OTUxMjE3NjUxMzciIHk9IjY3LjYwMDAwMDM4MTQ2OTczIiB4PSIxMTguNzU0MTAwNzk5NTYwNTUiIGNsYXNzPSJlciBhdHRyaWJ1dGVCb3hPZGQiPjwvcmVjdD48dGV4dCB0cmFuc2Zvcm09InRyYW5zbGF0ZSgxMjMuNzU0MTAwNzk5NTYwNTUsNzguNjAwMDAwMzgxNDY5NzMpIiBzdHlsZT0iZG9taW5hbnQtYmFzZWxpbmU6IG1pZGRsZTsgZm9udC1zaXplOiAxMC4ycHg7IiB5PSIwIiB4PSIwIiBpZD0idGV4dC1lbnRpdHktU0FMRVMtMjJhMTgxNmUtNDI5MC01MWY3LTg5ZDQtNDU4YTIwM2MwMzNjLWF0dHItMy1rZXkiIGNsYXNzPSJlciBlbnRpdHlMYWJlbCI+PC90ZXh0PjxyZWN0IGhlaWdodD0iMjIiIHdpZHRoPSI1Ni4wMDY1NDIyMDU4MTA1NSIgeT0iNjcuNjAwMDAwMzgxNDY5NzMiIHg9IjE0MC44NDE3OTU5MjEzMjU2OCIgY2xhc3M9ImVyIGF0dHJpYnV0ZUJveE9kZCI+PC9yZWN0Pjx0ZXh0IHRyYW5zZm9ybT0idHJhbnNsYXRlKDE0NS44NDE3OTU5MjEzMjU2OCw3OC42MDAwMDAzODE0Njk3MykiIHN0eWxlPSJkb21pbmFudC1iYXNlbGluZTogbWlkZGxlOyBmb250LXNpemU6IDEwLjJweDsiIHk9IjAiIHg9IjAiIGlkPSJ0ZXh0LWVudGl0eS1TQUxFUy0yMmExODE2ZS00MjkwLTUxZjctODlkNC00NThhMjAzYzAzM2MtYXR0ci0zLWNvbW1lbnQiIGNsYXNzPSJlciBlbnRpdHlMYWJlbCI+PC90ZXh0PjwvZz48ZyB0cmFuc2Zvcm09InRyYW5zbGF0ZSgxMDkuMTg2NjcyMjEwNjkzMzYsNTMxLjIwMDAwNDU3NzYzNjcgKSIgaWQ9ImVudGl0eS1TQUxFUFJPRFVDVFMtYTJhNTdiZmQtMzgzYi01NzYwLTg0NjMtMmEwNGQxNDFhNGNlIj48cmVjdCBoZWlnaHQ9IjExMS42MDAwMDAzODE0Njk3MyIgd2lkdGg9IjExOC40NzQ5OTg0NzQxMjExIiB5PSIwIiB4PSIwIiBjbGFzcz0iZXIgZW50aXR5Qm94Ij48L3JlY3Q+PHRleHQgdHJhbnNmb3JtPSJ0cmFuc2xhdGUoNTkuMjM3NDk5MjM3MDYwNTUsMTEuODAwMDAwMTkwNzM0ODYzKSIgc3R5bGU9ImRvbWluYW50LWJhc2VsaW5lOiBtaWRkbGU7IHRleHQtYW5jaG9yOiBtaWRkbGU7IGZvbnQtc2l6ZTogMTJweDsiIHk9IjAiIHg9IjAiIGlkPSJ0ZXh0LWVudGl0eS1TQUxFUFJPRFVDVFMtYTJhNTdiZmQtMzgzYi01NzYwLTg0NjMtMmEwNGQxNDFhNGNlIiBjbGFzcz0iZXIgZW50aXR5TGFiZWwiPlNBTEVfUFJPRFVDVFM8L3RleHQ+PHJlY3QgaGVpZ2h0PSIyMiIgd2lkdGg9IjI3Ljg0NjA5MjU0MjAxMjUzIiB5PSIyMy42MDAwMDAzODE0Njk3MjciIHg9IjAiIGNsYXNzPSJlciBhdHRyaWJ1dGVCb3hPZGQiPjwvcmVjdD48dGV4dCB0cmFuc2Zvcm09InRyYW5zbGF0ZSg1LDM0LjYwMDAwMDM4MTQ2OTczKSIgc3R5bGU9ImRvbWluYW50LWJhc2VsaW5lOiBtaWRkbGU7IGZvbnQtc2l6ZTogMTAuMnB4OyIgeT0iMCIgeD0iMCIgaWQ9InRleHQtZW50aXR5LVNBTEVQUk9EVUNUUy1hMmE1N2JmZC0zODNiLTU3NjAtODQ2My0yYTA0ZDE0MWE0Y2UtYXR0ci0xLXR5cGUiIGNsYXNzPSJlciBlbnRpdHlMYWJlbCI+aW50PC90ZXh0PjxyZWN0IGhlaWdodD0iMjIiIHdpZHRoPSI2My45NzY4NTY1NDk1ODA4OTQiIHk9IjIzLjYwMDAwMDM4MTQ2OTcyNyIgeD0iMjcuODQ2MDkyNTQyMDEyNTMiIGNsYXNzPSJlciBhdHRyaWJ1dGVCb3hPZGQiPjwvcmVjdD48dGV4dCB0cmFuc2Zvcm09InRyYW5zbGF0ZSgzMi44NDYwOTI1NDIwMTI1MywzNC42MDAwMDAzODE0Njk3MykiIHN0eWxlPSJkb21pbmFudC1iYXNlbGluZTogbWlkZGxlOyBmb250LXNpemU6IDEwLjJweDsiIHk9IjAiIHg9IjAiIGlkPSJ0ZXh0LWVudGl0eS1TQUxFUFJPRFVDVFMtYTJhNTdiZmQtMzgzYi01NzYwLTg0NjMtMmEwNGQxNDFhNGNlLWF0dHItMS1uYW1lIiBjbGFzcz0iZXIgZW50aXR5TGFiZWwiPmlkPC90ZXh0PjxyZWN0IGhlaWdodD0iMjIiIHdpZHRoPSIyNi42NTIwNDkzODI1Mjc2NjgiIHk9IjIzLjYwMDAwMDM4MTQ2OTcyNyIgeD0iOTEuODIyOTQ5MDkxNTkzNDMiIGNsYXNzPSJlciBhdHRyaWJ1dGVCb3hPZGQiPjwvcmVjdD48dGV4dCB0cmFuc2Zvcm09InRyYW5zbGF0ZSg5Ni44MjI5NDkwOTE1OTM0MywzNC42MDAwMDAzODE0Njk3MykiIHN0eWxlPSJkb21pbmFudC1iYXNlbGluZTogbWlkZGxlOyBmb250LXNpemU6IDEwLjJweDsiIHk9IjAiIHg9IjAiIGlkPSJ0ZXh0LWVudGl0eS1TQUxFUFJPRFVDVFMtYTJhNTdiZmQtMzgzYi01NzYwLTg0NjMtMmEwNGQxNDFhNGNlLWF0dHItMS1rZXkiIGNsYXNzPSJlciBlbnRpdHlMYWJlbCI+UEs8L3RleHQ+PHJlY3QgaGVpZ2h0PSIyMiIgd2lkdGg9IjI3Ljg0NjA5MjU0MjAxMjUzIiB5PSI0NS42MDAwMDAzODE0Njk3MyIgeD0iMCIgY2xhc3M9ImVyIGF0dHJpYnV0ZUJveEV2ZW4iPjwvcmVjdD48dGV4dCB0cmFuc2Zvcm09InRyYW5zbGF0ZSg1LDU2LjYwMDAwMDM4MTQ2OTczKSIgc3R5bGU9ImRvbWluYW50LWJhc2VsaW5lOiBtaWRkbGU7IGZvbnQtc2l6ZTogMTAuMnB4OyIgeT0iMCIgeD0iMCIgaWQ9InRleHQtZW50aXR5LVNBTEVQUk9EVUNUUy1hMmE1N2JmZC0zODNiLTU3NjAtODQ2My0yYTA0ZDE0MWE0Y2UtYXR0ci0yLXR5cGUiIGNsYXNzPSJlciBlbnRpdHlMYWJlbCI+aW50PC90ZXh0PjxyZWN0IGhlaWdodD0iMjIiIHdpZHRoPSI2My45NzY4NTY1NDk1ODA4OTQiIHk9IjQ1LjYwMDAwMDM4MTQ2OTczIiB4PSIyNy44NDYwOTI1NDIwMTI1MyIgY2xhc3M9ImVyIGF0dHJpYnV0ZUJveEV2ZW4iPjwvcmVjdD48dGV4dCB0cmFuc2Zvcm09InRyYW5zbGF0ZSgzMi44NDYwOTI1NDIwMTI1Myw1Ni42MDAwMDAzODE0Njk3MykiIHN0eWxlPSJkb21pbmFudC1iYXNlbGluZTogbWlkZGxlOyBmb250LXNpemU6IDEwLjJweDsiIHk9IjAiIHg9IjAiIGlkPSJ0ZXh0LWVudGl0eS1TQUxFUFJPRFVDVFMtYTJhNTdiZmQtMzgzYi01NzYwLTg0NjMtMmEwNGQxNDFhNGNlLWF0dHItMi1uYW1lIiBjbGFzcz0iZXIgZW50aXR5TGFiZWwiPnNhbGVfaWQ8L3RleHQ+PHJlY3QgaGVpZ2h0PSIyMiIgd2lkdGg9IjI2LjY1MjA0OTM4MjUyNzY2OCIgeT0iNDUuNjAwMDAwMzgxNDY5NzMiIHg9IjkxLjgyMjk0OTA5MTU5MzQzIiBjbGFzcz0iZXIgYXR0cmlidXRlQm94RXZlbiI+PC9yZWN0Pjx0ZXh0IHRyYW5zZm9ybT0idHJhbnNsYXRlKDk2LjgyMjk0OTA5MTU5MzQzLDU2LjYwMDAwMDM4MTQ2OTczKSIgc3R5bGU9ImRvbWluYW50LWJhc2VsaW5lOiBtaWRkbGU7IGZvbnQtc2l6ZTogMTAuMnB4OyIgeT0iMCIgeD0iMCIgaWQ9InRleHQtZW50aXR5LVNBTEVQUk9EVUNUUy1hMmE1N2JmZC0zODNiLTU3NjAtODQ2My0yYTA0ZDE0MWE0Y2UtYXR0ci0yLWtleSIgY2xhc3M9ImVyIGVudGl0eUxhYmVsIj5GSzwvdGV4dD48cmVjdCBoZWlnaHQ9IjIyIiB3aWR0aD0iMjcuODQ2MDkyNTQyMDEyNTMiIHk9IjY3LjYwMDAwMDM4MTQ2OTczIiB4PSIwIiBjbGFzcz0iZXIgYXR0cmlidXRlQm94T2RkIj48L3JlY3Q+PHRleHQgdHJhbnNmb3JtPSJ0cmFuc2xhdGUoNSw3OC42MDAwMDAzODE0Njk3MykiIHN0eWxlPSJkb21pbmFudC1iYXNlbGluZTogbWlkZGxlOyBmb250LXNpemU6IDEwLjJweDsiIHk9IjAiIHg9IjAiIGlkPSJ0ZXh0LWVudGl0eS1TQUxFUFJPRFVDVFMtYTJhNTdiZmQtMzgzYi01NzYwLTg0NjMtMmEwNGQxNDFhNGNlLWF0dHItMy10eXBlIiBjbGFzcz0iZXIgZW50aXR5TGFiZWwiPmludDwvdGV4dD48cmVjdCBoZWlnaHQ9IjIyIiB3aWR0aD0iNjMuOTc2ODU2NTQ5NTgwODk0IiB5PSI2Ny42MDAwMDAzODE0Njk3MyIgeD0iMjcuODQ2MDkyNTQyMDEyNTMiIGNsYXNzPSJlciBhdHRyaWJ1dGVCb3hPZGQiPjwvcmVjdD48dGV4dCB0cmFuc2Zvcm09InRyYW5zbGF0ZSgzMi44NDYwOTI1NDIwMTI1Myw3OC42MDAwMDAzODE0Njk3MykiIHN0eWxlPSJkb21pbmFudC1iYXNlbGluZTogbWlkZGxlOyBmb250LXNpemU6IDEwLjJweDsiIHk9IjAiIHg9IjAiIGlkPSJ0ZXh0LWVudGl0eS1TQUxFUFJPRFVDVFMtYTJhNTdiZmQtMzgzYi01NzYwLTg0NjMtMmEwNGQxNDFhNGNlLWF0dHItMy1uYW1lIiBjbGFzcz0iZXIgZW50aXR5TGFiZWwiPnByb2R1Y3RfaWQ8L3RleHQ+PHJlY3QgaGVpZ2h0PSIyMiIgd2lkdGg9IjI2LjY1MjA0OTM4MjUyNzY2OCIgeT0iNjcuNjAwMDAwMzgxNDY5NzMiIHg9IjkxLjgyMjk0OTA5MTU5MzQzIiBjbGFzcz0iZXIgYXR0cmlidXRlQm94T2RkIj48L3JlY3Q+PHRleHQgdHJhbnNmb3JtPSJ0cmFuc2xhdGUoOTYuODIyOTQ5MDkxNTkzNDMsNzguNjAwMDAwMzgxNDY5NzMpIiBzdHlsZT0iZG9taW5hbnQtYmFzZWxpbmU6IG1pZGRsZTsgZm9udC1zaXplOiAxMC4ycHg7IiB5PSIwIiB4PSIwIiBpZD0idGV4dC1lbnRpdHktU0FMRVBST0RVQ1RTLWEyYTU3YmZkLTM4M2ItNTc2MC04NDYzLTJhMDRkMTQxYTRjZS1hdHRyLTMta2V5IiBjbGFzcz0iZXIgZW50aXR5TGFiZWwiPkZLPC90ZXh0PjxyZWN0IGhlaWdodD0iMjIiIHdpZHRoPSIyNy44NDYwOTI1NDIwMTI1MyIgeT0iODkuNjAwMDAwMzgxNDY5NzMiIHg9IjAiIGNsYXNzPSJlciBhdHRyaWJ1dGVCb3hFdmVuIj48L3JlY3Q+PHRleHQgdHJhbnNmb3JtPSJ0cmFuc2xhdGUoNSwxMDAuNjAwMDAwMzgxNDY5NzMpIiBzdHlsZT0iZG9taW5hbnQtYmFzZWxpbmU6IG1pZGRsZTsgZm9udC1zaXplOiAxMC4ycHg7IiB5PSIwIiB4PSIwIiBpZD0idGV4dC1lbnRpdHktU0FMRVBST0RVQ1RTLWEyYTU3YmZkLTM4M2ItNTc2MC04NDYzLTJhMDRkMTQxYTRjZS1hdHRyLTQtdHlwZSIgY2xhc3M9ImVyIGVudGl0eUxhYmVsIj5pbnQ8L3RleHQ+PHJlY3QgaGVpZ2h0PSIyMiIgd2lkdGg9IjYzLjk3Njg1NjU0OTU4MDg5NCIgeT0iODkuNjAwMDAwMzgxNDY5NzMiIHg9IjI3Ljg0NjA5MjU0MjAxMjUzIiBjbGFzcz0iZXIgYXR0cmlidXRlQm94RXZlbiI+PC9yZWN0Pjx0ZXh0IHRyYW5zZm9ybT0idHJhbnNsYXRlKDMyLjg0NjA5MjU0MjAxMjUzLDEwMC42MDAwMDAzODE0Njk3MykiIHN0eWxlPSJkb21pbmFudC1iYXNlbGluZTogbWlkZGxlOyBmb250LXNpemU6IDEwLjJweDsiIHk9IjAiIHg9IjAiIGlkPSJ0ZXh0LWVudGl0eS1TQUxFUFJPRFVDVFMtYTJhNTdiZmQtMzgzYi01NzYwLTg0NjMtMmEwNGQxNDFhNGNlLWF0dHItNC1uYW1lIiBjbGFzcz0iZXIgZW50aXR5TGFiZWwiPnF1YW50aXR5PC90ZXh0PjxyZWN0IGhlaWdodD0iMjIiIHdpZHRoPSIyNi42NTIwNDkzODI1Mjc2NjgiIHk9Ijg5LjYwMDAwMDM4MTQ2OTczIiB4PSI5MS44MjI5NDkwOTE1OTM0MyIgY2xhc3M9ImVyIGF0dHJpYnV0ZUJveEV2ZW4iPjwvcmVjdD48dGV4dCB0cmFuc2Zvcm09InRyYW5zbGF0ZSg5Ni44MjI5NDkwOTE1OTM0MywxMDAuNjAwMDAwMzgxNDY5NzMpIiBzdHlsZT0iZG9taW5hbnQtYmFzZWxpbmU6IG1pZGRsZTsgZm9udC1zaXplOiAxMC4ycHg7IiB5PSIwIiB4PSIwIiBpZD0idGV4dC1lbnRpdHktU0FMRVBST0RVQ1RTLWEyYTU3YmZkLTM4M2ItNTc2MC04NDYzLTJhMDRkMTQxYTRjZS1hdHRyLTQta2V5IiBjbGFzcz0iZXIgZW50aXR5TGFiZWwiPjwvdGV4dD48L2c+PHJlY3QgaGVpZ2h0PSIwIiB3aWR0aD0iMCIgeT0iMTcwLjYwMDAwNjEwMzUxNTYyIiB4PSI0MjMuMzM5OTk2MzM3ODkwNiIgY2xhc3M9ImVyIHJlbGF0aW9uc2hpcExhYmVsQm94Ij48L3JlY3Q+PHRleHQgc3R5bGU9InRleHQtYW5jaG9yOiBtaWRkbGU7IGRvbWluYW50LWJhc2VsaW5lOiBtaWRkbGU7IGZvbnQtc2l6ZTogMTJweDsiIHk9IjE3MC42MDAwMDYxMDM1MTU2MiIgeD0iNDIzLjMzOTk5NjMzNzg5MDYiIGlkPSJyZWwxIiBjbGFzcz0iZXIgcmVsYXRpb25zaGlwTGFiZWwiPjwvdGV4dD48cmVjdCBoZWlnaHQ9IjAiIHdpZHRoPSIwIiB5PSI0ODYuNzAwMDEyMjA3MDMxMjUiIHg9IjQyMy4zMzk5OTYzMzc4OTA2IiBjbGFzcz0iZXIgcmVsYXRpb25zaGlwTGFiZWxCb3giPjwvcmVjdD48dGV4dCBzdHlsZT0idGV4dC1hbmNob3I6IG1pZGRsZTsgZG9taW5hbnQtYmFzZWxpbmU6IG1pZGRsZTsgZm9udC1zaXplOiAxMnB4OyIgeT0iNDg2LjcwMDAxMjIwNzAzMTI1IiB4PSI0MjMuMzM5OTk2MzM3ODkwNiIgaWQ9InJlbDIiIGNsYXNzPSJlciByZWxhdGlvbnNoaXBMYWJlbCI+PC90ZXh0PjxyZWN0IGhlaWdodD0iMCIgd2lkdGg9IjAiIHk9IjQ0NS4yNjE1OTY2Nzk2ODc1IiB4PSI2MjAuMjE0MDUwMjkyOTY4OCIgY2xhc3M9ImVyIHJlbGF0aW9uc2hpcExhYmVsQm94Ij48L3JlY3Q+PHRleHQgc3R5bGU9InRleHQtYW5jaG9yOiBtaWRkbGU7IGRvbWluYW50LWJhc2VsaW5lOiBtaWRkbGU7IGZvbnQtc2l6ZTogMTJweDsiIHk9IjQ0NS4yNjE1OTY2Nzk2ODc1IiB4PSI2MjAuMjE0MDUwMjkyOTY4OCIgaWQ9InJlbDMiIGNsYXNzPSJlciByZWxhdGlvbnNoaXBMYWJlbCI+PC90ZXh0PjxyZWN0IGhlaWdodD0iMCIgd2lkdGg9IjAiIHk9IjIwOS4xMDAwMDYxMDM1MTU2MiIgeD0iMTE4LjQyNDAwMzYwMTA3NDIyIiBjbGFzcz0iZXIgcmVsYXRpb25zaGlwTGFiZWxCb3giPjwvcmVjdD48dGV4dCBzdHlsZT0idGV4dC1hbmNob3I6IG1pZGRsZTsgZG9taW5hbnQtYmFzZWxpbmU6IG1pZGRsZTsgZm9udC1zaXplOiAxMnB4OyIgeT0iMjA5LjEwMDAwNjEwMzUxNTYyIiB4PSIxMTguNDI0MDAzNjAxMDc0MjIiIGlkPSJyZWw0IiBjbGFzcz0iZXIgcmVsYXRpb25zaGlwTGFiZWwiPjwvdGV4dD48cmVjdCBoZWlnaHQ9IjAiIHdpZHRoPSIwIiB5PSIyMDkuMTAwMDA2MTAzNTE1NjIiIHg9IjExOC40MjQwMDM2MDEwNzQyMiIgY2xhc3M9ImVyIHJlbGF0aW9uc2hpcExhYmVsQm94Ij48L3JlY3Q+PHRleHQgc3R5bGU9InRleHQtYW5jaG9yOiBtaWRkbGU7IGRvbWluYW50LWJhc2VsaW5lOiBtaWRkbGU7IGZvbnQtc2l6ZTogMTJweDsiIHk9IjIwOS4xMDAwMDYxMDM1MTU2MiIgeD0iMTE4LjQyNDAwMzYwMTA3NDIyIiBpZD0icmVsNSIgY2xhc3M9ImVyIHJlbGF0aW9uc2hpcExhYmVsIj48L3RleHQ+PHJlY3QgaGVpZ2h0PSIwIiB3aWR0aD0iMCIgeT0iNDU1LjQ3MDAwMTIyMDcwMzEiIHg9IjEyMC40MjQ4MTk5NDYyODkwNiIgY2xhc3M9ImVyIHJlbGF0aW9uc2hpcExhYmVsQm94Ij48L3JlY3Q+PHRleHQgc3R5bGU9InRleHQtYW5jaG9yOiBtaWRkbGU7IGRvbWluYW50LWJhc2VsaW5lOiBtaWRkbGU7IGZvbnQtc2l6ZTogMTJweDsiIHk9IjQ1NS40NzAwMDEyMjA3MDMxIiB4PSIxMjAuNDI0ODE5OTQ2Mjg5MDYiIGlkPSJyZWw2IiBjbGFzcz0iZXIgcmVsYXRpb25zaGlwTGFiZWwiPjwvdGV4dD48cmVjdCBoZWlnaHQ9IjAiIHdpZHRoPSIwIiB5PSI0NzAuNTIxNjk3OTk4MDQ2OSIgeD0iMjc0LjQ1MjI3MDUwNzgxMjUiIGNsYXNzPSJlciByZWxhdGlvbnNoaXBMYWJlbEJveCI+PC9yZWN0Pjx0ZXh0IHN0eWxlPSJ0ZXh0LWFuY2hvcjogbWlkZGxlOyBkb21pbmFudC1iYXNlbGluZTogbWlkZGxlOyBmb250LXNpemU6IDEycHg7IiB5PSI0NzAuNTIxNjk3OTk4MDQ2OSIgeD0iMjc0LjQ1MjI3MDUwNzgxMjUiIGlkPSJyZWw3IiBjbGFzcz0iZXIgcmVsYXRpb25zaGlwTGFiZWwiPjwvdGV4dD48L3N2Zz4=;" parent="1" vertex="1">
            <mxGeometry x="-811" y="-2280" width="810.7593994140625" height="780" as="geometry" />
          </mxCell>
        </UserObject>
      </root>
    </mxGraphModel>
  </diagram>
</mxfile>
